<svg id="Layer_1" data-name="Layer 1" xmlns="http://www.w3.org/2000/svg" viewBox="0 0 175.78 545.32">
  <title>female1</title>
  <g id="foot">
    <path d="M595.79,610.06c0,1.62.19,3.67-.54,5.2-.53,6-1.29,12-1.32,18.07a52.71,52.71,0,0,0,.55,8.88c.37,2.17.88,5,2.79,6.44a.64.64,0,0,1,.27.41,6.25,6.25,0,0,0,2.58,1.82c2.36.67,5.15.23,7.55,0,3.19-.27,6.36-.68,9.55-1,2.91-.3,6.34-1,9.23-.35a.7.7,0,0,1,.46.94h0a3.2,3.2,0,0,0,2.22-3.76,9.6,9.6,0,0,0-1.88-4.55,13.93,13.93,0,0,0-2-1.87,1,1,0,0,1-.72-.66c-1.54-4.29-4.22-7.94-6.15-12a44.72,44.72,0,0,1-2.1-5.31c-.61-1.9-1.16-4-2.59-5.5a.58.58,0,0,1-.09-.75,5,5,0,0,1-.57-1.64,5.13,5.13,0,0,1,.2-2.56c-.05-.64-.07-1.28-.07-1.92H595.79Zm6.08,31.14c5.73-2,11.45-3.32,17.54-2.17,1.09.21.63,1.91-.46,1.67-5.54-1.2-11.47-.25-16.84,1.37C601.55,642.24,601.33,641.39,601.87,641.2Z" transform="translate(-562 -107.88)" fill="#f7dfa9"/>
    <path d="M602.11,642.07c5.37-1.62,11.3-2.57,16.84-1.37,1.09.24,1.55-1.46.46-1.67-6.09-1.15-11.81.13-17.54,2.17C601.33,641.39,601.55,642.24,602.11,642.07Z" transform="translate(-562 -107.88)"/>
    <path d="M613.23,611.85a5.13,5.13,0,0,0-.2,2.56,5,5,0,0,0,.57,1.64.58.58,0,0,0,.09.75c1.43,1.46,2,3.6,2.59,5.5a44.72,44.72,0,0,0,2.1,5.31c1.93,4.08,4.61,7.73,6.15,12a1,1,0,0,0,.72.66,13.93,13.93,0,0,1,2,1.87,9.6,9.6,0,0,1,1.88,4.55,3.2,3.2,0,0,1-2.22,3.76h0a.7.7,0,0,0-.46-.94c-2.89-.62-6.32.05-9.23.35-3.19.34-6.36.75-9.55,1-2.4.2-5.19.64-7.55,0a6.25,6.25,0,0,1-2.58-1.82.64.64,0,0,0-.27-.41c-1.91-1.39-2.42-4.27-2.79-6.44a52.71,52.71,0,0,1-.55-8.88c0-6.06.79-12.05,1.32-18.07.73-1.53.57-3.58.54-5.2v-.13h-1.4c0,.77,0,1.54,0,2.31a20.29,20.29,0,0,0-.19,3.11h0c-.59,3.45-1.22,6.88-1.48,10.39-.2,2.89-.28,5.8-.26,8.69a46.47,46.47,0,0,0,.85,9.2c.47,2.19,1.28,4.59,3.11,6a10.79,10.79,0,0,0,2.6,2.58c1.9,1.16,4.78.68,6.84.57,3.4-.18,6.79-.61,10.18-1q2.69-.28,5.37-.51h0a.48.48,0,0,0,.38.29c2.12.35,4.21,1,6.33.28,1.86-.63,2.69-2.63,2.77-4.44a10.27,10.27,0,0,0-1.92-5.8,8.82,8.82,0,0,0-2.59-2.78c-1.45-4.21-4-7.88-6-11.8-1.41-2.68-2.18-5.9-3.74-8.55a.45.45,0,0,0,.16-.6,14.64,14.64,0,0,1-2.09-7c0-.32,0-.64,0-1h-1.55C613.16,610.57,613.18,611.21,613.23,611.85Z" transform="translate(-562 -107.88)"/>
    <g>
      <path d="M686.54,612.07a4.65,4.65,0,0,1,.15,2.88,6.44,6.44,0,0,1-.52,1.32.57.57,0,0,1-.08.76c-1.54,1.58-2.07,3.92-2.74,6a36.69,36.69,0,0,1-2.18,5.32c-2,3.84-4.45,7.45-5.92,11.55a1,1,0,0,1-.74.67,10.78,10.78,0,0,0-2,1.86,9.35,9.35,0,0,0-1.88,4.55c-.11,1.59.39,3.44,2.21,3.77h0a.69.69,0,0,1,.46-.93c2.88-.63,6.33,0,9.23.35,3.18.34,6.36.76,9.55,1,2.31.18,5.29.76,7.55,0a7,7,0,0,0,2.58-1.85.68.68,0,0,1,.27-.39c2-1.44,2.52-4.53,2.84-6.79a56.26,56.26,0,0,0,.49-8.89c-.07-5.94-.79-11.81-1.31-17.71-.77-1.6-.62-3.83-.53-5.56H686.61C686.62,610.64,686.6,611.36,686.54,612.07Zm11.13,30.24c-5.38-1.63-11.3-2.58-16.84-1.38-1.09.24-1.55-1.46-.46-1.66,6.09-1.15,11.81.13,17.54,2.16C698.45,641.62,698.23,642.48,697.67,642.31Z" transform="translate(-562 -107.88)" fill="#f7dfa9"/>
      <path d="M680.37,639.27c-1.09.2-.63,1.9.46,1.66,5.54-1.2,11.46-.25,16.84,1.38.56.17.78-.69.24-.88C692.18,639.4,686.46,638.12,680.37,639.27Z" transform="translate(-562 -107.88)"/>
      <path d="M704,609.93c-.09,1.73-.24,4,.53,5.56.52,5.9,1.24,11.77,1.31,17.71a56.26,56.26,0,0,1-.49,8.89c-.32,2.26-.85,5.35-2.84,6.79a.68.68,0,0,0-.27.39,7,7,0,0,1-2.58,1.85c-2.26.78-5.24.2-7.55,0-3.19-.25-6.37-.67-9.55-1-2.9-.32-6.35-1-9.23-.35a.69.69,0,0,0-.46.93h0c-1.82-.33-2.32-2.18-2.21-3.77a9.35,9.35,0,0,1,1.88-4.55,10.78,10.78,0,0,1,2-1.86,1,1,0,0,0,.74-.67c1.47-4.1,3.92-7.71,5.92-11.55a36.69,36.69,0,0,0,2.18-5.32c.67-2,1.2-4.38,2.74-6a.57.57,0,0,0,.08-.76,6.44,6.44,0,0,0,.52-1.32,4.65,4.65,0,0,0-.15-2.88c.06-.71.08-1.43.07-2.14H685l0,.73c.08,2.88-.8,5-2.08,7.48a.45.45,0,0,0,.17.6c-1.47,2.5-2.21,5.51-3.51,8.08-2.08,4.1-4.75,7.89-6.26,12.27a9.26,9.26,0,0,0-2.36,2.45,10.71,10.71,0,0,0-2.15,6.12,4.73,4.73,0,0,0,2.58,4.36c2,1,4.44.15,6.53-.19a.5.5,0,0,0,.38-.29c1.6.12,3.19.28,4.79.44,3.59.38,7.17.82,10.77,1,2.07.13,4.66.5,6.62-.46a9,9,0,0,0,2.84-2.7c1.74-1.35,2.5-3.56,3-5.64a43.09,43.09,0,0,0,.93-9.55c0-2.69-.09-5.38-.23-8.07a92.67,92.67,0,0,0-1.51-11c.21-1.82-.22-3.79-.18-5.65Z" transform="translate(-562 -107.88)"/>
    </g>
  </g>
  <g id="hands">
    <path d="M733.82,403.21c0-.72.07-1.43.14-2.09a13.86,13.86,0,0,0-1.19-3.12A28.47,28.47,0,0,1,733.82,403.21Z" transform="translate(-562 -107.88)" fill="#f7dfa9"/>
    <path d="M712.45,369.91c0,.26,0,.54,0,.83a.47.47,0,0,1,.38.56c-.44,4.23-3.19,7.73-3.76,11.91-.5,3.73,1.33,6.77,2.7,10a.43.43,0,0,1,.52.42l0,1c.09.26.18.52.26.78a.32.32,0,0,1-.17.4,9.47,9.47,0,0,0,2.88,6.44c.73-5.14-1.08-10.29-.72-15.46,0-.39.63-.4.61,0a25.34,25.34,0,0,0,.14,3.49.44.44,0,0,1,.63,0c1.34,1.28,2.14,3.47,3,5.11s1.63,3.27,2.36,4.95a.36.36,0,0,1,.36.31A27.58,27.58,0,0,1,720,413.11a34.05,34.05,0,0,0-1.35,4.38,5.69,5.69,0,0,0-.21,1.88c.05.39.32.37.61.26a.35.35,0,0,1,.06-.17c.85-1.15,2-2,2.77-3.24a16.47,16.47,0,0,0,2-4,29.08,29.08,0,0,0,1.29-8.54c-.16-.78-.34-1.55-.55-2.32a.51.51,0,0,1,1-.27,39.88,39.88,0,0,1,1.67,8.8c.14,1.61.24,3.23.29,4.85,0,1.21.28,2.61-.25,3.73a.32.32,0,0,1-.1.1,4.15,4.15,0,0,0,.37,1.13c1.39-.51,1.44-2.07,1.71-3.41a.32.32,0,0,1,.27-.26,39.25,39.25,0,0,0-.27-15.08c-.1-.48.61-.68.73-.2,1.22,5,1.82,11,.46,16.09a11.73,11.73,0,0,0,.51,2.69,10.56,10.56,0,0,0,1.34-3.92,37.94,37.94,0,0,0,.56-6.81c0-3.89,0-8.31-1.33-12a.32.32,0,0,1,.23-.45c-.19-.27-.39-.55-.6-.81a.5.5,0,1,1,.79-.61,16,16,0,0,1,2.69,5.05.44.44,0,0,1,.45.51c0,.29-.07.6-.1.91a.44.44,0,0,1,0,.1.43.43,0,0,1-.06.34c-.2,2.51-.13,5.53,1.34,7.52.13-4.23.73-8.44.51-12.66a.35.35,0,0,1,.19-.36c-1-2.8-1.93-5.59-2.89-8.39s-1.56-5.87-3-8.4a27.85,27.85,0,0,0-4.44-5.53,42.94,42.94,0,0,1-3.39-3.59.7.7,0,0,1-.75-.47c-.29-.81-.56-1.62-.8-2.44h-9.38A19.11,19.11,0,0,1,712.45,369.91Z" transform="translate(-562 -107.88)" fill="#f7dfa9"/>
    <path d="M722.53,370a.7.7,0,0,0,.75.47,42.94,42.94,0,0,0,3.39,3.59,27.85,27.85,0,0,1,4.44,5.53c1.44,2.53,2.07,5.65,3,8.4s1.94,5.59,2.89,8.39a.35.35,0,0,0-.19.36c.22,4.22-.38,8.43-.51,12.66-1.47-2-1.54-5-1.34-7.52a.43.43,0,0,0,.06-.34.44.44,0,0,0,0-.1c0-.31.06-.62.1-.91a.44.44,0,0,0-.45-.51,16,16,0,0,0-2.69-5.05.5.5,0,1,0-.79.61c.21.26.41.54.6.81a.32.32,0,0,0-.23.45c1.3,3.71,1.35,8.13,1.33,12a37.94,37.94,0,0,1-.56,6.81,10.56,10.56,0,0,1-1.34,3.92,11.73,11.73,0,0,1-.51-2.69c1.36-5.12.76-11.08-.46-16.09-.12-.48-.83-.28-.73.2a39.25,39.25,0,0,1,.27,15.08.32.32,0,0,0-.27.26c-.27,1.34-.32,2.9-1.71,3.41a4.15,4.15,0,0,1-.37-1.13.32.32,0,0,0,.1-.1c.53-1.12.29-2.52.25-3.73,0-1.62-.15-3.24-.29-4.85a39.88,39.88,0,0,0-1.67-8.8.51.51,0,0,0-1,.27c.21.77.39,1.54.55,2.32a29.08,29.08,0,0,1-1.29,8.54,16.47,16.47,0,0,1-2,4c-.8,1.21-1.92,2.09-2.77,3.24a.35.35,0,0,0-.06.17c-.29.11-.56.13-.61-.26a5.69,5.69,0,0,1,.21-1.88,34.05,34.05,0,0,1,1.35-4.38,27.58,27.58,0,0,0,1.64-12.43.36.36,0,0,0-.36-.31c-.73-1.68-1.51-3.33-2.36-4.95s-1.64-3.83-3-5.11a.44.44,0,0,0-.63,0,25.34,25.34,0,0,1-.14-3.49c0-.4-.58-.39-.61,0-.36,5.17,1.45,10.32.72,15.46a9.47,9.47,0,0,1-2.88-6.44.32.32,0,0,0,.17-.4c-.08-.26-.17-.52-.26-.78l0-1a.43.43,0,0,0-.52-.42c-1.37-3.26-3.2-6.3-2.7-10,.57-4.18,3.32-7.68,3.76-11.91a.47.47,0,0,0-.38-.56c0-.29,0-.57,0-.83a19.11,19.11,0,0,0-.1-2.39H711c0,.22,0,.44.07.66A20.2,20.2,0,0,1,711,372c-.11,1.18-.55,2.3-.62,3.48a.23.23,0,0,0,.06.16c-1,2.77-2.36,5.44-2.58,8.43-.27,3.76,2.09,7.06,3.51,10.42.13,3.43,1,7,4,9.07a.48.48,0,0,0,.69-.28c.77-3.94-.12-7.78-.63-11.66A32.14,32.14,0,0,0,718,396c1.06,1.79,2.13,3.59,3,5.46h0c.21,4.86-1.28,9.35-2.71,13.93-.41,1.31-1.13,3.2-.64,4.58.41,1.15,1.86.6,2.36-.15a.25.25,0,0,0,0-.16c2.1-1.53,3.5-4.44,4.36-6.75a22.53,22.53,0,0,0,1.23-6c.16,1.2.29,2.41.4,3.62.12,1.43.2,2.87.25,4.31,0,.56,0,1.16,0,1.76a.43.43,0,0,0-.12.27,5.88,5.88,0,0,0,.83,3.62.42.42,0,0,0,.46.19,2.8,2.8,0,0,0,2.13-2.21h.13a21.27,21.27,0,0,0,.55,2.33.52.52,0,0,0,.85.22c2.81-2.59,2.89-7.84,2.94-11.34,0-1,0-1.92,0-2.89a7.08,7.08,0,0,0,2.39,4.41.57.57,0,0,0,1-.39c0-4.64.65-9.26.24-13.89a.25.25,0,0,0,0-.21c-.84-3-1.74-6-2.67-8.93a62.63,62.63,0,0,0-2.75-8.27,22.1,22.1,0,0,0-4.17-5.53c-1.49-1.56-2.89-3.28-4.39-4.83l-.45-1.55h-1.5C722,368.34,722.24,369.15,722.53,370Zm11.29,33.25a28.47,28.47,0,0,0-1.05-5.21,13.86,13.86,0,0,1,1.19,3.12C733.89,401.78,733.84,402.49,733.82,403.21Z" transform="translate(-562 -107.88)"/>
    <g>
      <path d="M565.82,400.89c.07.68.13,1.42.14,2.17a28.32,28.32,0,0,1,1-5.29A13.5,13.5,0,0,0,565.82,400.89Z" transform="translate(-562 -107.88)" fill="#f7dfa9"/>
      <path d="M577.25,369.73a.69.69,0,0,1-.75.46,40,40,0,0,1-3.39,3.59,25.2,25.2,0,0,0-4.44,5.54c-1.38,2.6-2.06,5.61-3,8.39s-1.93,5.6-2.88,8.4a.34.34,0,0,1,.19.35c-.22,4.23.38,8.44.51,12.66,1.46-2,1.53-5,1.33-7.51a.57.57,0,0,1-.06-.35l0-.09c0-.32-.06-.62-.1-.92a.43.43,0,0,1,.45-.5,16.21,16.21,0,0,1,2.68-5.06.5.5,0,1,1,.8.61c-.21.27-.41.54-.6.82a.33.33,0,0,1,.23.45c-1.29,3.69-1.38,8.14-1.34,12a36.87,36.87,0,0,0,.57,6.8,11,11,0,0,0,1.34,3.93,11.71,11.71,0,0,0,.51-2.7c-1.37-5.11-.76-11.07.46-16.09.12-.48.83-.27.73.2a39.25,39.25,0,0,0-.28,15.08.33.33,0,0,1,.28.27c.27,1.34.32,2.9,1.71,3.4a4,4,0,0,0,.37-1.12.36.36,0,0,1-.1-.11c-.53-1.11-.29-2.52-.25-3.73,0-1.61.12-3.24.29-4.85a42.37,42.37,0,0,1,1.67-8.79.51.51,0,0,1,1,.27c-.21.76-.39,1.53-.55,2.3a26.91,26.91,0,0,0,1.29,8.55,16.51,16.51,0,0,0,2,4c.84,1.17,1.93,2.09,2.78,3.23a.25.25,0,0,1,0,.16c.35.12.63.14.63-.42a8.29,8.29,0,0,0-.28-2,42.52,42.52,0,0,0-1.29-4.11,27.47,27.47,0,0,1-1.64-12.44.37.37,0,0,1,.35-.31c.74-1.67,1.51-3.32,2.36-4.95s1.64-3.82,3-5.1a.43.43,0,0,1,.63,0,25.4,25.4,0,0,0,.14-3.49c0-.4.58-.39.61,0,.36,5.16-1.45,10.31-.73,15.45a9.41,9.41,0,0,0,2.89-6.43.32.32,0,0,1-.17-.4c.08-.26.16-.52.26-.78l0-1a.43.43,0,0,1,.54-.42c1.39-3.25,3.33-6.4,2.68-10-.75-4.14-3.32-7.69-3.76-11.91a.46.46,0,0,1,.36-.55c0-.44,0-.87,0-1.26,0-.58,0-1.16.1-1.73H578C577.75,368.26,577.51,369,577.25,369.73Z" transform="translate(-562 -107.88)" fill="#f7dfa9"/>
      <path d="M587.33,369.25c0,.39,0,.82,0,1.26a.46.46,0,0,0-.36.55c.44,4.22,3,7.77,3.76,11.91.65,3.64-1.29,6.79-2.68,10a.43.43,0,0,0-.54.42l0,1c-.1.26-.18.52-.26.78a.32.32,0,0,0,.17.4,9.41,9.41,0,0,1-2.89,6.43c-.72-5.14,1.09-10.29.73-15.45,0-.39-.63-.4-.61,0a25.4,25.4,0,0,1-.14,3.49.43.43,0,0,0-.63,0c-1.35,1.28-2.13,3.47-3,5.1s-1.62,3.28-2.36,4.95a.37.37,0,0,0-.35.31,27.47,27.47,0,0,0,1.64,12.44,42.52,42.52,0,0,1,1.29,4.11,8.29,8.29,0,0,1,.28,2c0,.56-.28.54-.63.42a.25.25,0,0,0,0-.16c-.85-1.14-1.94-2.06-2.78-3.23a16.51,16.51,0,0,1-2-4,26.91,26.91,0,0,1-1.29-8.55c.16-.77.34-1.54.55-2.3a.51.51,0,0,0-1-.27,42.37,42.37,0,0,0-1.67,8.79c-.17,1.61-.24,3.24-.29,4.85,0,1.21-.28,2.62.25,3.73a.36.36,0,0,0,.1.11,4,4,0,0,1-.37,1.12c-1.39-.5-1.44-2.06-1.71-3.4a.33.33,0,0,0-.28-.27,39.25,39.25,0,0,1,.28-15.08c.1-.47-.61-.68-.73-.2-1.22,5-1.83,11-.46,16.09a11.71,11.71,0,0,1-.51,2.7,11,11,0,0,1-1.34-3.93,36.87,36.87,0,0,1-.57-6.8c0-3.88.05-8.33,1.34-12a.33.33,0,0,0-.23-.45c.19-.28.39-.55.6-.82a.5.5,0,1,0-.8-.61,16.21,16.21,0,0,0-2.68,5.06.43.43,0,0,0-.45.5c0,.3.07.6.1.92l0,.09a.57.57,0,0,0,.06.35c.2,2.51.13,5.52-1.33,7.51-.13-4.22-.73-8.43-.51-12.66a.34.34,0,0,0-.19-.35c1-2.8,1.93-5.6,2.88-8.4s1.63-5.79,3-8.39a25.2,25.2,0,0,1,4.44-5.54,40,40,0,0,0,3.39-3.59.69.69,0,0,0,.75-.46c.26-.74.5-1.47.73-2.21h-1.5c-.12.44-.25.88-.39,1.31-1.38,1.46-2.66,3.07-4.06,4.51a26.13,26.13,0,0,0-4.28,5.44c-1.37,2.47-2,5.42-2.78,8.1-1,3.16-2,6.32-2.85,9.51a.24.24,0,0,0,0,.21c-.41,4.64.2,9.25.24,13.89a.57.57,0,0,0,1,.4,7.16,7.16,0,0,0,2.4-4.5c0,1,0,2,0,3,0,3.5.14,8.77,2.94,11.34a.5.5,0,0,0,.84-.22,18.8,18.8,0,0,0,.56-2.33h.13a2.78,2.78,0,0,0,2.13,2.2.4.4,0,0,0,.46-.18,6,6,0,0,0,.83-3.62.47.47,0,0,0-.14-.3c0-.41,0-.81,0-1.21,0-1.61.14-3.23.27-4.83.11-1.25.23-2.5.4-3.75a25.5,25.5,0,0,0,1.23,6.16c.79,2.31,2.28,5.24,4.36,6.75a.24.24,0,0,0,0,.16c.5.75,1.78,1.25,2.31.26.64-1.2-.16-3.24-.5-4.41-.47-1.58-1.12-3.09-1.57-4.67a31,31,0,0,1-1.23-9.53h0c.89-1.88,2-3.67,3-5.47a32.14,32.14,0,0,0,2.56-4.34c-.51,3.88-1.4,7.72-.63,11.66a.47.47,0,0,0,.69.28c3-2,3.85-5.65,4-9.08,1.41-3.43,3.55-6.54,3.51-10.4,0-3-1.45-5.71-2.54-8.5a.3.3,0,0,0,0-.1,25.15,25.15,0,0,0-.53-2.83,18,18,0,0,1-.17-4c0-.29,0-.58.06-.87h-1.31C587.37,368.09,587.34,368.67,587.33,369.25Zm-21.51,31.64a13.5,13.5,0,0,1,1.19-3.12,28.32,28.32,0,0,0-1,5.29C566,402.31,565.89,401.57,565.82,400.89Z" transform="translate(-562 -107.88)"/>
    </g>
  </g>
  <g id="arm1">
    <path d="M596.13,216.81c-4.06,7.7-1.39,16.11-1.33,24.3a.6.6,0,0,1-.45.61c-.53,1.69-1,3.39-1.5,5.1-.37,1.36-.64,2.78-1.12,4.11a128.33,128.33,0,0,0-1.56,20.35c.05,5.06.37,10.13.24,15.19a61.83,61.83,0,0,1-.57,7c-.16,1.13-.32,2.33-.56,3.51h14.83a.26.26,0,0,1-.06-.28c.15-.37.31-.72.47-1.07s.12-.57.2-.85a.39.39,0,0,1,.37-.31l.35-.61c.4-.69.61-1.62,1.07-2.28,1-4.36,1.13-9,2.09-13.32.67-3,1.43-6,1.9-9.08.1-.66.2-1.33.27-2l-2.22-12.37a21.17,21.17,0,0,1-1.91-4.45,15.87,15.87,0,0,1-.3-7.86l-5.44-30.36A11.11,11.11,0,0,0,596.13,216.81Z" transform="translate(-562 -107.88)" fill="#f7dfa9"/>
    <path d="M610.5,269.23c-.47,3.06-1.23,6.06-1.9,9.08-1,4.34-1.1,9-2.09,13.32-.46.66-.67,1.59-1.07,2.28l-.35.61a.39.39,0,0,0-.37.31c-.08.28-.14.56-.2.85s-.32.7-.47,1.07a.26.26,0,0,0,.06.28h1.5c2.94-5.62,3-12.22,4.34-18.35.53-2.42,1.11-4.82,1.57-7.26l-.75-4.19C610.7,267.9,610.6,268.57,610.5,269.23Z" transform="translate(-562 -107.88)"/>
    <path d="M589.84,293.52a61.83,61.83,0,0,0,.57-7c.13-5.06-.19-10.13-.24-15.19a128.33,128.33,0,0,1,1.56-20.35c.48-1.33.75-2.75,1.12-4.11.46-1.71,1-3.41,1.5-5.1a.6.6,0,0,0,.45-.61c-.06-8.19-2.73-16.6,1.33-24.3a11.11,11.11,0,0,1,4.77-4.62l-.24-1.31a12.78,12.78,0,0,0-5.51,4.88c-4.45,7.29-2.08,15.89-1.72,23.88a.32.32,0,0,0-.39.24,124.51,124.51,0,0,0-4,29.64c-.08,5.07.21,10.15.14,15.23,0,2.48-.18,5-.45,7.45a45.81,45.81,0,0,1-1,4.83h1.53C589.52,295.85,589.68,294.65,589.84,293.52Zm3.64-52.33a.54.54,0,0,0,.12.31c-.15.43-.3.86-.44,1.29C593.26,242.26,593.37,241.73,593.48,241.19Z" transform="translate(-562 -107.88)"/>
    <path d="M703.76,217c4.22,7.49,1.39,16.28,1.32,24.3a.62.62,0,0,0,.45.62q.79,2.53,1.51,5.1c.37,1.35.63,2.75,1.1,4.07a131,131,0,0,1,1.57,19.79c0,5.07-.31,10.14-.24,15.21a59.94,59.94,0,0,0,.55,7.45c.15,1.11.3,2.29.53,3.46h1.53a40,40,0,0,1-.82-4,68.88,68.88,0,0,1-.51-7.45c-.13-5.08.16-10.15.13-15.22a121.94,121.94,0,0,0-4-30.23.31.31,0,0,0-.39-.23c.34-8.11,2.56-16.37-1.72-23.88a10.88,10.88,0,0,0-2.09-2.64l-.43,1.58A10.77,10.77,0,0,1,703.76,217Zm2.64,24.39c.11.51.21,1,.31,1.54l-.42-1.24A.57.57,0,0,0,706.4,241.34Z" transform="translate(-562 -107.88)"/>
    <path d="M693.24,250.56a24.67,24.67,0,0,1-1.94,4.58L689,263.68a7.88,7.88,0,0,0,0,1.09,35,35,0,0,0,.53,5.1c.52,3,1.26,6,1.91,9,.9,4.23,1,8.71,2,12.95.18.34.27.71.45,1.09s.49.93.76,1.4l.18.34a.39.39,0,0,1,.38.31c.07.27.13.55.19.82s.32.72.47,1.1c0,0,0,0,0,.05h14.71c-.23-1.17-.38-2.35-.53-3.46a59.94,59.94,0,0,1-.55-7.45c-.07-5.07.24-10.14.24-15.21A131,131,0,0,0,708.14,251c-.47-1.32-.73-2.72-1.1-4.07q-.72-2.57-1.51-5.1a.62.62,0,0,1-.45-.62c.07-8,2.9-16.81-1.32-24.3a10.77,10.77,0,0,0-1.55-2.1l-8.29,30.64A15.17,15.17,0,0,1,693.24,250.56Z" transform="translate(-562 -107.88)" fill="#f7dfa9"/>
    <path d="M695.83,296.9c-.15-.38-.31-.74-.47-1.1s-.12-.55-.19-.82a.39.39,0,0,0-.38-.31l-.18-.34c-.27-.47-.53-.92-.76-1.4s-.27-.75-.45-1.09c-1-4.24-1.12-8.72-2-12.95-.65-3-1.39-6-1.91-9a35,35,0,0,1-.53-5.1,7.88,7.88,0,0,1,0-1.09l-1.2,4.43.06.47c.45,3.31,1.25,6.56,2,9.81,1.39,6.17,1.42,12.86,4.32,18.56h1.68S695.84,296.92,695.83,296.9Z" transform="translate(-562 -107.88)"/>
    <path d="M693.92,245.49l-2.62,9.65a24.67,24.67,0,0,0,1.94-4.58A15.17,15.17,0,0,0,693.92,245.49Z" transform="translate(-562 -107.88)"/>
    <path d="M606.54,250.32a21,21,0,0,0,1.91,4.45l-2.21-12.3A15.71,15.71,0,0,0,606.54,250.32Z" transform="translate(-562 -107.88)"/>
    <path d="M610.84,264.08c0-1.06-.28-2.13-.34-3.18a33.11,33.11,0,0,0-.65-3.44.48.48,0,0,1,.06-.4,24.49,24.49,0,0,1-1.46-2.29l2.22,12.37A24.14,24.14,0,0,0,610.84,264.08Z" transform="translate(-562 -107.88)" fill="#f7dfa9"/>
    <path d="M689.92,257.39a.5.5,0,0,1,0,.3,34.51,34.51,0,0,0-.65,3.46c0,.84-.21,1.69-.29,2.53l2.31-8.54A26.08,26.08,0,0,1,689.92,257.39Z" transform="translate(-562 -107.88)" fill="#f7dfa9"/>
  </g>
  <g id="arm2">
    <path d="M695.66,297.27c.06.32.11.64.16,1a.43.43,0,0,1,0,.07.36.36,0,0,1,0,.36,66.5,66.5,0,0,1,.56,7.74c.06,2,.1,4.06.27,6.08.07.88.21,1.77.35,2.65.05-.54.12-1.07.2-1.61s1.15-.46,1.07.15c-.75,5.77.38,11.89,1.83,17.47a123.69,123.69,0,0,0,5.54,16.34c2,4.84,4.27,9.62,5.61,14.7a34.28,34.28,0,0,1,1,5.34h9.38c-6.48-21.68,2.29-46.34-9.05-66.82a.58.58,0,0,1-1,0,14.74,14.74,0,0,1-1.16-3.73H695.84A.3.3,0,0,1,695.66,297.27Z" transform="translate(-562 -107.88)" fill="#f7dfa9"/>
    <path d="M711.31,362.18c-1.34-5.08-3.6-9.86-5.61-14.7a123.69,123.69,0,0,1-5.54-16.34c-1.45-5.58-2.58-11.7-1.83-17.47.08-.61-1-.75-1.07-.15s-.15,1.07-.2,1.61c-.14-.88-.28-1.77-.35-2.65-.17-2-.21-4.05-.27-6.08a66.5,66.5,0,0,0-.56-7.74.36.36,0,0,0,0-.36.43.43,0,0,0,0-.07c-.05-.32-.1-.64-.16-1a.3.3,0,0,0,.18-.32h-1.68c.21.42.44.85.69,1.26a80.64,80.64,0,0,1,.49,8.79c.07,3.72-.18,8.21,1.24,11.72a.48.48,0,0,0,.27.27c0,9.4,3.53,18.89,6.91,27.43,1.84,4.63,4,9.12,5.57,13.86a35.89,35.89,0,0,1,1.67,7.24h1.35A34.28,34.28,0,0,0,711.31,362.18Z" transform="translate(-562 -107.88)"/>
    <path d="M711.71,300.68a.58.58,0,0,0,1,0c11.34,20.48,2.57,45.14,9.05,66.82h1.5c-3.05-11-2.66-22.51-2.79-33.89-.14-11.78-1.15-24-7.5-34.21a.4.4,0,0,0-.38-.2c-.14-.76-.31-1.52-.48-2.27h-1.53A14.74,14.74,0,0,0,711.71,300.68Z" transform="translate(-562 -107.88)"/>
    <g>
      <path d="M588.07,300.45a.59.59,0,0,1-1,0c-11.38,20.55-2.5,45.31-9.12,67h9.45a32,32,0,0,1,1-5.57c1.4-5.08,3.62-9.84,5.62-14.7a121.9,121.9,0,0,0,5.54-16.35c1.42-5.6,2.58-11.67,1.83-17.47-.08-.6,1-.74,1.06-.14s.16,1.09.22,1.64c.14-.9.27-1.79.34-2.69.15-2,.21-4.05.27-6.08a66.33,66.33,0,0,1,.56-7.73.36.36,0,0,1,0-.37.43.43,0,0,0,0-.07c0-.32.1-.64.16-.95A.54.54,0,0,1,604,297H589.18A15.05,15.05,0,0,1,588.07,300.45Z" transform="translate(-562 -107.88)" fill="#f7dfa9"/>
      <path d="M604.12,297c-.06.31-.11.63-.16.95a.43.43,0,0,1,0,.07.36.36,0,0,0,0,.37,66.33,66.33,0,0,0-.56,7.73c-.06,2-.12,4.06-.27,6.08-.07.9-.2,1.79-.34,2.69-.06-.55-.13-1.1-.22-1.64s-1.14-.46-1.06.14c.75,5.8-.41,11.87-1.83,17.47a121.9,121.9,0,0,1-5.54,16.35c-2,4.86-4.22,9.62-5.62,14.7a32,32,0,0,0-1,5.57h1.31a34.51,34.51,0,0,1,1.56-7c1.53-4.91,3.81-9.54,5.71-14.31,3.41-8.51,6.9-18,6.92-27.42a.51.51,0,0,0,.27-.27c1.35-3.34,1.15-7.58,1.23-11.11a89.26,89.26,0,0,1,.5-9.4c.2-.34.39-.69.57-1H604A.54.54,0,0,0,604.12,297Z" transform="translate(-562 -107.88)"/>
      <path d="M587.1,300.47a.59.59,0,0,0,1,0,15.05,15.05,0,0,0,1.11-3.5h-1.54c-.15.68-.3,1.35-.43,2a.39.39,0,0,0-.37.2c-6.27,10.1-7.32,22.08-7.49,33.7s.31,23.35-2.87,34.63H578C584.6,345.78,575.72,321,587.1,300.47Z" transform="translate(-562 -107.88)"/>
    </g>
  </g>
  <g id="legs">
    <g>
      <path d="M709.58,516.31l-.11,0c.08.7.18,1.4.3,2.09C709.71,517.73,709.65,517,709.58,516.31Z" transform="translate(-562 -107.88)" fill="#f7dfa9"/>
      <path d="M704.56,603.21c0-.43.06-.86.09-1.28a30,30,0,0,1-.17-5.44.23.23,0,0,1-.06-.12,26.05,26.05,0,0,1,.42-5.57,2.53,2.53,0,0,0,0-.32.57.57,0,0,1-.15-.43c.64-6.25.3-12.56,1-18.8.73-6.08,2.05-12.06,3.05-18.1a134.65,134.65,0,0,0,1.24-30.49,22.85,22.85,0,0,1-1.09-6.83c-.41-1.39-.43-2.86-.7-4.29a31.84,31.84,0,0,0-1.23-4.6,80.63,80.63,0,0,0-3.9-8.82c-1-1.94-1.91-3.88-2.77-5.84H672.67c.1.37.21.74.32,1.11a61.61,61.61,0,0,0,3.82,9c2.2,4.48,5.41,9.53,4.22,14.72-.13.57-.95.32-.86-.24.45-3-.84-6-2.22-8.58-.69-1.28-1.4-2.57-2.09-3.86a49.8,49.8,0,0,0-.18,11.83c.38,4.6.75,9.22,1.21,13.81a99.06,99.06,0,0,0,2.93,13.8c.55,2.2,1.08,4.42,1.45,6.67a33,33,0,0,1,.52,3.27.56.56,0,0,1,.44.59c-.57,5.81.74,11.79,1.59,17.51.82,5.54,1.3,11.12,1.66,16.7.37,5.82.55,11.66.94,17.49.08,1.21.17,2.5.19,3.81H704v-.19C704.11,607.55,704.35,605.38,704.56,603.21Zm-12.5-107.87c-1.93,1.18-3.75,3-6.06,3.36a6.43,6.43,0,0,1-6.07-2c-.71-.76.24-2.14,1.15-1.49,1.85,1.33,3.36,2,5.61,1.2a27.93,27.93,0,0,0,4.69-2.22A.67.67,0,0,1,692.06,495.34Z" transform="translate(-562 -107.88)" fill="#f7dfa9"/>
      <path d="M691.38,494.19a27.93,27.93,0,0,1-4.69,2.22c-2.25.76-3.76.13-5.61-1.2-.91-.65-1.86.73-1.15,1.49a6.43,6.43,0,0,0,6.07,2c2.31-.4,4.13-2.18,6.06-3.36A.67.67,0,0,0,691.38,494.19Z" transform="translate(-562 -107.88)"/>
      <path d="M686.42,606.12c-.39-5.83-.57-11.67-.94-17.49-.36-5.58-.84-11.16-1.66-16.7-.85-5.72-2.16-11.7-1.59-17.51a.56.56,0,0,0-.44-.59,33,33,0,0,0-.52-3.27c-.37-2.25-.9-4.47-1.45-6.67a99.06,99.06,0,0,1-2.93-13.8c-.46-4.59-.83-9.21-1.21-13.81a49.8,49.8,0,0,1,.18-11.83c.69,1.29,1.4,2.58,2.09,3.86,1.38,2.56,2.67,5.61,2.22,8.58-.09.56.73.81.86.24,1.19-5.19-2-10.24-4.22-14.72a61.61,61.61,0,0,1-3.82-9c-.11-.37-.22-.74-.32-1.11h-1.91a41,41,0,0,0,3.22,8.55q.46.94,1,1.89c-2.44,8.67-.83,18,0,26.8a73,73,0,0,0,2.9,13.13c.62,2.2,1.24,4.4,1.73,6.64.24,1.09.43,2.2.6,3.31.11.74.13,1.51.25,2.26,0,.32,0,.63,0,.95a37.44,37.44,0,0,0,0,4.37.24.24,0,0,0,.11.16,61.69,61.69,0,0,0,.78,9.32c.82,5.51,1.55,11,2,16.59s.84,11.19,1.23,16.79c.16,2.29.37,4.59.46,6.89h1.57C686.59,608.62,686.5,607.33,686.42,606.12Z" transform="translate(-562 -107.88)"/>
      <path d="M703.15,498.12a80.63,80.63,0,0,1,3.9,8.82,31.84,31.84,0,0,1,1.23,4.6c.27,1.43.29,2.9.7,4.29a22.85,22.85,0,0,0,1.09,6.83,134.65,134.65,0,0,1-1.24,30.49c-1,6-2.32,12-3.05,18.1-.75,6.24-.41,12.55-1,18.8a.57.57,0,0,0,.15.43,2.53,2.53,0,0,1,0,.32,26.05,26.05,0,0,0-.42,5.57.23.23,0,0,0,.06.12,30,30,0,0,0,.17,5.44c0,.42,0,.85-.09,1.28-.21,2.17-.45,4.34-.55,6.53v.19h1.41v-.19c.08-2.19.36-4.36.54-6.53s.07-4.54.11-6.81.23-4.57.43-6.85a.32.32,0,0,0-.34-.35c.83-5.52.31-11.19.89-16.74.7-6.56,2.22-13,3.29-19.52a125.29,125.29,0,0,0,.1-38.85.41.41,0,0,0-.23-.33,21.17,21.17,0,0,0-1.07-5.9,59.23,59.23,0,0,0-3.55-8.85c-1-2.22-2.2-4.46-3.28-6.73h-1.92C701.24,494.24,702.18,496.18,703.15,498.12Zm6.43,18.19c.07.71.13,1.42.19,2.13-.12-.69-.22-1.39-.3-2.09Z" transform="translate(-562 -107.88)"/>
    </g>
    <g>
      <path d="M590.2,516.08c-.07.71-.13,1.42-.19,2.13.12-.7.22-1.39.3-2.09Z" transform="translate(-562 -107.88)" fill="#f7dfa9"/>
      <path d="M596.63,497.88a70.18,70.18,0,0,0-4,9.29,29,29,0,0,0-1.16,4.6,30.56,30.56,0,0,1-.62,3.83,23.17,23.17,0,0,1-1.09,6.83,133.57,133.57,0,0,0,1.34,31.08c1.05,6,2.38,12,3,18.11s.36,12.14,1,18.2a.53.53,0,0,1-.15.42c0,.15,0,.29.05.41a26.63,26.63,0,0,1,.41,5.49.23.23,0,0,1-.06.12,31.13,31.13,0,0,1-.17,5.46c0,.42,0,.83.09,1.25.23,2.31.51,4.63.57,7h17.37c0-1.6.15-3.2.24-4.67.37-5.82.55-11.64.94-17.46.38-5.57.86-11.14,1.7-16.67s2.06-11.33,1.51-17a.55.55,0,0,1,.44-.58,25.89,25.89,0,0,1,.52-3.28c.39-2.24.89-4.46,1.45-6.67,1.14-4.54,2.52-9.11,2.93-13.8s.85-9.2,1.21-13.8a51.13,51.13,0,0,0-.18-11.86c-.7,1.3-1.4,2.59-2.09,3.89-1.37,2.56-2.67,5.6-2.22,8.58.09.55-.73.81-.86.23-1.17-5.1,1.93-10.35,4.22-14.71a49.12,49.12,0,0,0,3.9-9.29H599C598.27,494.56,597.45,496.22,596.63,497.88ZM608.39,494a25.62,25.62,0,0,0,5.1,2.36c2.1.59,3.52-.14,5.21-1.35.91-.65,1.86.74,1.15,1.5a6.34,6.34,0,0,1-6.08,2c-2.32-.56-4-2.14-6-3.36A.67.67,0,0,1,608.39,494Z" transform="translate(-562 -107.88)" fill="#f7dfa9"/>
      <path d="M607.72,495.11c2,1.22,3.73,2.8,6,3.36a6.34,6.34,0,0,0,6.08-2c.71-.76-.24-2.15-1.15-1.5-1.69,1.21-3.11,1.94-5.21,1.35a25.62,25.62,0,0,1-5.1-2.36A.67.67,0,0,0,607.72,495.11Z" transform="translate(-562 -107.88)"/>
      <path d="M595.22,603c0-.42-.07-.83-.09-1.25a31.13,31.13,0,0,0,.17-5.46.23.23,0,0,0,.06-.12,26.63,26.63,0,0,0-.41-5.49c0-.12,0-.26-.05-.41a.53.53,0,0,0,.15-.42c-.62-6.06-.34-12.15-1-18.2s-2-12.08-3-18.11a133.57,133.57,0,0,1-1.34-31.08,23.17,23.17,0,0,0,1.09-6.83,30.56,30.56,0,0,0,.62-3.83,29,29,0,0,1,1.16-4.6,70.18,70.18,0,0,1,4-9.29c.82-1.66,1.64-3.32,2.39-5h-1.94c-.89,1.83-1.81,3.64-2.67,5.43a67.35,67.35,0,0,0-3.62,8.85,20.64,20.64,0,0,0-1.22,6.36.42.42,0,0,0-.22.32,126.81,126.81,0,0,0,0,38.26c1,6.52,2.53,12.95,3.32,19.51.69,5.75.09,11.63,1,17.35a.32.32,0,0,0-.34.34c.37,4.39.21,8.77.5,13.15.14,2.16.42,4.32.55,6.49,0,.33,0,.65,0,1h1.4C595.73,607.6,595.45,605.28,595.22,603Zm-5-86.89.11,0c-.08.7-.18,1.39-.3,2.09C590.07,517.5,590.13,516.79,590.2,516.08Z" transform="translate(-562 -107.88)"/>
      <path d="M623,502.18c-2.29,4.36-5.39,9.61-4.22,14.71.13.58,1,.32.86-.23-.45-3,.85-6,2.22-8.58.69-1.3,1.39-2.59,2.09-3.89a51.13,51.13,0,0,1,.18,11.86c-.36,4.6-.82,9.2-1.21,13.8s-1.79,9.26-2.93,13.8c-.56,2.21-1.06,4.43-1.45,6.67a25.89,25.89,0,0,0-.52,3.28.55.55,0,0,0-.44.58c.55,5.62-.67,11.42-1.51,17s-1.32,11.1-1.7,16.67c-.39,5.82-.57,11.64-.94,17.46-.09,1.47-.23,3.07-.24,4.67h1.55c0-2.18.29-4.35.45-6.52.4-5.6.77-11.2,1.22-16.8s1.14-11.1,2-16.61a65.44,65.44,0,0,0,.87-9.89.31.31,0,0,0,.11-.16,35.38,35.38,0,0,0,0-4.37v-.79c.41-1.66.41-3.52.74-5.19.45-2.23,1.08-4.44,1.7-6.63a83.28,83.28,0,0,0,3-13.69c.5-4.57.91-9.22,1.16-13.82a39.18,39.18,0,0,0-1.19-13c.33-.62.65-1.25,1-1.88a41.9,41.9,0,0,0,3-7.7h-1.92A49.12,49.12,0,0,1,623,502.18Z" transform="translate(-562 -107.88)"/>
    </g>
  </g>
  <g id="thigs">
    <path d="M698.7,487.93a.2.2,0,0,1-.17-.11c-.37-.77-.79-1.48-1.1-2.28,0-.1-.07-.19-.11-.29a.3.3,0,0,1-.33-.16c-.77-1.68-.66-3.91-.7-5.73,0-2-.07-4.05,0-6.08,0-.41,0-.81.06-1.21-.62-1.33-.26-3.09,0-4.53a.37.37,0,0,1-.17-.41c.78-3.65,2-7.15,2.64-10.86A112.11,112.11,0,0,0,700,445c.47-7.38.85-14.71,1.63-22.07a230.17,230.17,0,0,0,1.68-24.2c0-6.11-.27-12.2-.29-18.31a.43.43,0,0,1-.63-.39c0-3,.39-5.87.18-8.86s-.62-6-1.14-9A86.66,86.66,0,0,0,697,346.46c-2-5.27-4.1-10.48-6.47-15.59-.68-1.47-1.38-3-2-4.48L658,362.1c.52,2.75.93,5.53,1.2,8.33,1,10,.61,20,.57,30,0,5,0,10.05.24,15.06s.8,10.12,1,15.2c.46,10.24.31,20.56,2.45,30.63,1,4.82,2.23,9.63,3.7,14.34.73,2.33,1.41,4.71,2.28,7,.25.65.52,1.28.8,1.91l.06-.06.06-.07c.22-.73.49-1.45.74-2.17.15-.44.84-.26.7.2a17.8,17.8,0,0,0-.45,2.4c.55,1,.33,2.24.47,3.35h0c.07.19.15.37.21.56a.49.49,0,0,1-.05.46c.17,1,.38,2,.64,3h27.71C699.76,490.86,699.18,489.41,698.7,487.93Z" transform="translate(-562 -107.88)" fill="#f7dfa9"/>
    <path d="M672,489.27a.49.49,0,0,0,.05-.46c-.06-.19-.14-.37-.21-.56h0c-.14-1.11.08-2.39-.47-3.35a17.8,17.8,0,0,1,.45-2.4c.14-.46-.55-.64-.7-.2-.25.72-.52,1.44-.74,2.17l-.06.07-.06.06c-.28-.63-.55-1.26-.8-1.91-.87-2.28-1.55-4.66-2.28-7-1.47-4.71-2.67-9.52-3.7-14.34-2.14-10.07-2-20.39-2.45-30.63-.23-5.08-.77-10.13-1-15.2s-.26-10-.24-15.06c0-10,.41-20.06-.57-30-.27-2.8-.68-5.58-1.2-8.33l-1.34,1.57c2,19,0,38.17,1.57,57.22.83,10.27.81,20.58,1.68,30.85.81,9.63,3.75,19.12,6.79,28.25a47.22,47.22,0,0,0,3.2,7.34c0,.12,0,.24,0,.36a32.54,32.54,0,0,0,.8,4.6h1.91C672.41,491.3,672.2,490.29,672,489.27Z" transform="translate(-562 -107.88)"/>
    <path d="M690.48,330.87c2.37,5.11,4.48,10.32,6.47,15.59a86.66,86.66,0,0,1,4.47,15.69c.52,3,.92,6,1.14,9s-.19,5.89-.18,8.86a.43.43,0,0,0,.63.39c0,6.11.28,12.2.29,18.31a230.17,230.17,0,0,1-1.68,24.2c-.78,7.36-1.16,14.69-1.63,22.07a112.11,112.11,0,0,1-1.19,11.27c-.61,3.71-1.86,7.21-2.64,10.86a.37.37,0,0,0,.17.41c-.23,1.44-.59,3.2,0,4.53,0,.4-.05.8-.06,1.21-.08,2-.06,4.05,0,6.08,0,1.82-.07,4.05.7,5.73a.3.3,0,0,0,.33.16c0,.1.08.19.11.29.31.8.73,1.51,1.1,2.28a.2.2,0,0,0,.17.11c.48,1.48,1.06,2.93,1.68,4.36h1.92a45.64,45.64,0,0,1-3.58-9.65c.21-1.5-.54-3.1-1-4.62,0-1.38,0-2.76,0-4.14a97.81,97.81,0,0,1,1-10.79,52.05,52.05,0,0,0,1.25-5.37,97.91,97.91,0,0,0,1.4-11.07c.61-7.52,1-15,1.75-22.55.86-8,1.62-16.06,1.77-24.13s-.47-16.41-.78-24.61c0-1,0-2,0-3a78.9,78.9,0,0,0-.92-8.67,74.47,74.47,0,0,0-4.15-16.07c-1.87-5.1-3.87-10.25-6.18-15.17-1.11-2.34-2.37-4.73-3.4-7.2l-1,1.15C689.1,327.91,689.8,329.4,690.48,330.87Z" transform="translate(-562 -107.88)"/>
    <path d="M688.51,326.38l1-1.15c-.33-.8-.64-1.6-.91-2.4h-1.23A28.84,28.84,0,0,0,688.51,326.38Z" transform="translate(-562 -107.88)"/>
    <g id="right_leg" data-name="right leg">
      <path d="M609.17,331.27c-2.34,4.91-4.35,10-6.25,15.11a83.51,83.51,0,0,0-4.57,16.27,88.24,88.24,0,0,0-1.07,9c-.14,2.78.22,5.5.21,8.27a.43.43,0,0,1-.64.39c0,6.31-.32,12.61-.28,18.93,0,7.92.85,15.72,1.68,23.58.79,7.54,1.15,15.06,1.66,22.62a103.48,103.48,0,0,0,1.25,11.25c.64,3.51,1.81,6.85,2.55,10.32a.38.38,0,0,1-.17.42c.23,1.43.58,3.19,0,4.51,0,.41,0,.82.05,1.23.07,2.22.11,4.47,0,6.69-.09,1.67,0,3.57-.67,5.12a.3.3,0,0,1-.33.16l-.11.29c-.32.79-.73,1.51-1.1,2.28a.22.22,0,0,1-.17.11,52.51,52.51,0,0,1-2.06,5.2H627a2,2,0,0,1,.08-.26,36.53,36.53,0,0,0,.81-3.59.5.5,0,0,1-.06-.48l.21-.56.06-.55a6.73,6.73,0,0,1,.41-2.8,17.8,17.8,0,0,0-.45-2.4c-.14-.46.55-.64.7-.2.25.71.53,1.44.74,2.18l.06.05c.62-1.47,1.24-2.94,1.74-4.47,3-9.33,5.93-19.1,6.64-28.93.74-10.27.83-20.56,1.63-30.83,1.54-19.73-1.45-39.9,2.56-59.41a.66.66,0,0,1,0-.15l-21.39-25.83a.87.87,0,0,1-.22-.26l-8.45-10.21A56.85,56.85,0,0,1,609.17,331.27Z" transform="translate(-562 -107.88)" fill="#f7dfa9"/>
      <path d="M601.17,487.85a.22.22,0,0,0,.17-.11c.37-.77.78-1.49,1.1-2.28l.11-.29a.3.3,0,0,0,.33-.16c.71-1.55.58-3.45.67-5.12.13-2.22.09-4.47,0-6.69,0-.41,0-.82-.05-1.23.6-1.32.25-3.08,0-4.51a.38.38,0,0,0,.17-.42c-.74-3.47-1.91-6.81-2.55-10.32a103.48,103.48,0,0,1-1.25-11.25c-.51-7.56-.87-15.08-1.66-22.62-.83-7.86-1.63-15.66-1.68-23.58,0-6.32.26-12.62.28-18.93a.43.43,0,0,0,.64-.39c0-2.77-.35-5.49-.21-8.27a88.24,88.24,0,0,1,1.07-9,83.51,83.51,0,0,1,4.57-16.27c1.9-5.1,3.91-10.2,6.25-15.11a56.85,56.85,0,0,0,2.91-6.92l-1-1.14a88.81,88.81,0,0,1-3.93,8.69c-2.34,4.89-4.3,10-6.21,15.1a76.88,76.88,0,0,0-4.31,16.39c-.39,2.76-.77,5.51-.92,8.29a36.93,36.93,0,0,0,0,3.95c-.29,7.88-.77,15.75-.76,23.64a229.64,229.64,0,0,0,1.71,24.16c.8,7.52,1.2,15.05,1.77,22.59a106.19,106.19,0,0,0,1.34,11.09,49.87,49.87,0,0,0,1.35,6c.47,3.35.8,6.73.94,10.11.07,1.56.07,3.13.06,4.7-.43,1.52-1.2,3.14-1,4.66a48.89,48.89,0,0,1-4,10.49h1.94A52.51,52.51,0,0,0,601.17,487.85Z" transform="translate(-562 -107.88)"/>
      <path d="M642.09,360.8c-4,19.51-1,39.68-2.56,59.41-.8,10.27-.89,20.56-1.63,30.83-.71,9.83-3.59,19.6-6.64,28.93-.5,1.53-1.12,3-1.74,4.47l-.06-.05c-.21-.74-.49-1.47-.74-2.18-.15-.44-.84-.26-.7.2a17.8,17.8,0,0,1,.45,2.4,6.73,6.73,0,0,0-.41,2.8l-.06.55-.21.56a.5.5,0,0,0,.06.48,36.53,36.53,0,0,1-.81,3.59,2,2,0,0,0-.08.26h1.92c.08-.28.16-.56.23-.84a34.74,34.74,0,0,0,.74-4l.12-.85a29,29,0,0,0,1.89-3.73c.89-2.27,1.61-4.62,2.35-6.94,1.49-4.71,2.89-9.44,4-14.26,2.2-9.85,2.3-19.84,2.7-29.89.21-5.1.7-10.17,1-15.26s.34-10,.33-15c0-10-.33-20.06.29-30.07.21-3.34.47-6.67.86-10l-1.22-1.48A.66.66,0,0,0,642.09,360.8Z" transform="translate(-562 -107.88)"/>
    </g>
  </g>
  <g id="weenie">
    <path d="M647.36,362.54a.94.94,0,0,1-.54-.22,7.07,7.07,0,0,1-3.44-1.33c0,.32-.07.65-.11,1l7.31,8.83,6.1-7.14c-.09-.81-.18-1.62-.28-2.43C654,363.08,650.32,362.73,647.36,362.54Z" transform="translate(-562 -107.88)" fill="none"/>
    <path d="M642.52,360.14v0a5,5,0,0,1-.44-.63.33.33,0,0,1,0-.25c-2.74-4.9-6.8-9.05-10.24-13.44-3.26-4.17-6.23-8.45-11-11.05a.38.38,0,0,1-.13-.09l21.39,25.84A.65.65,0,0,1,642.52,360.14Z" transform="translate(-562 -107.88)" fill="#f7dfa9"/>
    <path d="M670.66,332.92c-.07.1,0,.25.14.18,3.72-2.37,5.07-6.19,5.51-10.27h-1.69A20.4,20.4,0,0,1,670.66,332.92Z" transform="translate(-562 -107.88)"/>
    <path d="M620.66,334.65l-.22-.26A.68.68,0,0,0,620.66,334.65Z" transform="translate(-562 -107.88)"/>
    <g>
      <path d="M687.35,322.83h-11c-.44,4.08-1.79,7.9-5.51,10.27-.12.07-.21-.08-.14-.18a20.4,20.4,0,0,0,4-10.09H625.19a20.24,20.24,0,0,0,3.93,9.86c.07.09,0,.25-.14.18-3.65-2.33-5-6.05-5.48-10H612.38c-.12.45-.25.9-.39,1.36l8.45,10.2a.86.86,0,0,1,1.18-1.07c5.12,2.48,8.75,6.47,11.74,11.25,3.26,5.21,7.71,9.6,10.37,15.18a.56.56,0,0,1,.06.21,11.89,11.89,0,0,0,3.9.64,41.5,41.5,0,0,0,4.73-.11.74.74,0,0,1,.68.27,10.22,10.22,0,0,0,2.89-.57.56.56,0,0,1,.06-.21c2.72-5.71,7.29-10.26,10.63-15.59a28,28,0,0,1,11.48-10.83c1-.46,1.77.91.83,1.42-4.91,2.67-8,7.15-11.31,11.44s-7.27,8.29-9.93,13.05a.3.3,0,0,1,0,.25,5.39,5.39,0,0,1-.43.63v0a.61.61,0,0,1,.52.49c.09.4.16.81.24,1.21l30.49-35.7A28.84,28.84,0,0,1,687.35,322.83Z" transform="translate(-562 -107.88)" fill="#f7dfa9"/>
      <path d="M629,332.87c.12.07.21-.09.14-.18a20.24,20.24,0,0,1-3.93-9.86H623.5C624,326.82,625.33,330.54,629,332.87Z" transform="translate(-562 -107.88)"/>
      <path d="M657.78,360.87a.61.61,0,0,0-.52-.49v0a5.39,5.39,0,0,0,.43-.63.3.3,0,0,0,0-.25c2.66-4.76,6.59-8.77,9.93-13.05s6.4-8.77,11.31-11.44c.94-.51.12-1.88-.83-1.42a28,28,0,0,0-11.48,10.83c-3.34,5.33-7.91,9.88-10.63,15.59a.56.56,0,0,0-.06.21,10.22,10.22,0,0,1-2.89.57.74.74,0,0,0-.68-.27,41.5,41.5,0,0,1-4.73.11,11.89,11.89,0,0,1-3.9-.64.56.56,0,0,0-.06-.21c-2.66-5.58-7.11-10-10.37-15.18-3-4.78-6.62-8.77-11.74-11.25a.86.86,0,0,0-1.18,1.07l.22.26a.38.38,0,0,0,.13.09c4.77,2.6,7.74,6.88,11,11.05,3.44,4.39,7.5,8.54,10.24,13.44a.33.33,0,0,0,0,.25,5,5,0,0,0,.44.63v0a.65.65,0,0,0-.47.35l1.22,1.47c0-.32.07-.65.11-1a7.07,7.07,0,0,0,3.44,1.33.94.94,0,0,0,.54.22c3,.19,6.67.54,9-1.32.1.81.19,1.62.28,2.43l1.34-1.57C657.94,361.68,657.87,361.27,657.78,360.87Z" transform="translate(-562 -107.88)"/>
    </g>
  </g>
  <g id="stomach">
    <path d="M686.45,319a23,23,0,0,1-1.71-3.66q-1.86-4.67-3.37-9.45c-1.77-5.65-3.24-11.24-2.49-17.19,1.06-8.45,5.64-15.93,7.68-24.1h-6.29a13.36,13.36,0,0,1-3,.55.44.44,0,0,1-.5.4,37.89,37.89,0,0,1-7.19-.95H628.93a45.7,45.7,0,0,1-6.22.72.44.44,0,0,1-.45-.24,12,12,0,0,1-2.7-.48H613c2.07,8.08,6.57,15.49,7.62,23.86.75,5.94-.69,11.56-2.48,17.19q-1.53,4.79-3.38,9.46a28.47,28.47,0,0,1-2,4.05l0,0a18.29,18.29,0,0,1-.55,3.52h11.12a66,66,0,0,1-.08-9.52.56.56,0,0,1,1.12,0,77.84,77.84,0,0,0,.65,9.52h49.43a80.18,80.18,0,0,0,.62-9.28.56.56,0,0,1,1.12,0,68.61,68.61,0,0,1-.05,9.28h11a17.94,17.94,0,0,1-.5-3.27C686.63,319.34,686.54,319.2,686.45,319ZM637,270.82c-1.54,2.79-3.47,5.24-5.21,7.89a29.56,29.56,0,0,0-2.38,4.21,36.58,36.58,0,0,0-1.24,4.62.29.29,0,0,1-.55,0c-.94-3,.46-6.54,2.08-9,1.9-2.92,4.39-5.39,6.29-8.29A.59.59,0,0,1,637,270.82Zm34.9,16.95a.29.29,0,0,1-.55,0,25.6,25.6,0,0,0-1.43-5,36.22,36.22,0,0,0-2.19-3.82c-1.78-2.62-3.67-5.1-5.2-7.88a.58.58,0,0,1,1-.59c1.91,2.9,4.43,5.34,6.29,8.28C671.4,281.28,672.85,284.77,671.89,287.77Z" transform="translate(-562 -107.88)" fill="#f7dfa9"/>
    <path d="M623.28,313.24a66,66,0,0,0,.08,9.52h1.69a77.84,77.84,0,0,1-.65-9.52A.56.56,0,0,0,623.28,313.24Z" transform="translate(-562 -107.88)"/>
    <path d="M636,270.23c-1.9,2.9-4.39,5.37-6.29,8.29-1.62,2.48-3,6.05-2.08,9a.29.29,0,0,0,.55,0,36.58,36.58,0,0,1,1.24-4.62,29.56,29.56,0,0,1,2.38-4.21c1.74-2.65,3.67-5.1,5.21-7.89A.59.59,0,0,0,636,270.23Z" transform="translate(-562 -107.88)"/>
    <path d="M676.22,313.48a.56.56,0,0,0-1.12,0,80.18,80.18,0,0,1-.62,9.28h1.69A68.61,68.61,0,0,0,676.22,313.48Z" transform="translate(-562 -107.88)"/>
    <path d="M663.52,270.47a.58.58,0,0,0-1,.59c1.53,2.78,3.42,5.26,5.2,7.88a36.22,36.22,0,0,1,2.19,3.82,25.6,25.6,0,0,1,1.43,5,.29.29,0,0,0,.55,0c1-3-.49-6.49-2.08-9C668,275.81,665.43,273.37,663.52,270.47Z" transform="translate(-562 -107.88)"/>
    <path d="M687.38,318.14c0-.29,0-.58-.07-.87a.27.27,0,0,0-.43-.22,95.55,95.55,0,0,1-3.26-9.29c-2-6-3.93-12.16-3.23-18.57.87-7.91,4.89-15,7.07-22.51.07.48.13.94.19,1.37l.93-3.41h-2c-2,8.17-6.62,15.65-7.68,24.1-.75,5.95.72,11.54,2.49,17.19q1.5,4.79,3.37,9.45a23,23,0,0,0,1.71,3.66c.09.16.18.3.26.45a17.94,17.94,0,0,0,.5,3.27h1.23c0-.11-.08-.22-.11-.33A7.05,7.05,0,0,0,687.38,318.14Z" transform="translate(-562 -107.88)"/>
    <path d="M612.81,319.2a28.47,28.47,0,0,0,2-4.05q1.86-4.66,3.38-9.46c1.79-5.63,3.23-11.25,2.48-17.19-1-8.37-5.55-15.78-7.62-23.86h-2.3c0,.81-.08,1.63-.17,2.44l.75,4.19c.18-.93.34-1.86.48-2.8.1-.69.18-1.39.24-2.08,2.14,7.58,6.12,14.65,7.11,22.57.77,6.18-1.13,12.19-3,18-1.05,3.18-2.2,6.31-3.31,9.47,0,.13-.09.26-.14.39a.27.27,0,0,0-.43.21c0,.34-.05.67-.08,1a7,7,0,0,0-.93,4.16c-.06.19-.14.38-.2.57h1.26a18.29,18.29,0,0,0,.55-3.52Z" transform="translate(-562 -107.88)"/>
  </g>
  <g id="breast">
    <path d="M593.5,241.11l-.33,1.6c.15-.44.29-.87.44-1.3A.57.57,0,0,1,593.5,241.11Z" transform="translate(-562 -107.88)" fill="#f7dfa9"/>
    <path d="M622.33,209a30.49,30.49,0,0,1,9.4,3.19c1.32.63,2.63,1.29,4,1.81,1.21.47,2.85,1.2,4.13.78a.3.3,0,0,0,.13-.49c-.84-1-2.44-1.35-3.58-1.9-1.55-.76-3.13-1.48-4.7-2.21a26.89,26.89,0,0,0-9.37-2.81C621.27,207.26,621.31,208.86,622.33,209Z" transform="translate(-562 -107.88)"/>
    <path d="M644.73,210.56a.4.4,0,0,0,.47-.27c.34-.93-.2-1.66-.62-2.48-.2-.4-.38-.79-.55-1.2h-2.14C642.47,208.3,643.34,210.36,644.73,210.56Z" transform="translate(-562 -107.88)"/>
    <path d="M660.17,215c1.17.38,2.54-.23,3.65-.61a36.48,36.48,0,0,0,4-1.76c3.14-1.5,6.37-3,9.87-3.42,1-.12,1.06-1.71,0-1.63a26.5,26.5,0,0,0-8.9,2.59c-1.57.72-3.13,1.5-4.71,2.2-1.25.56-3.13,1.11-4,2.14A.3.3,0,0,0,660.17,215Z" transform="translate(-562 -107.88)"/>
    <path d="M654.82,210.52a.4.4,0,0,0,.48.27c1.46-.21,2.33-2.45,2.9-4.18h-2.12c-.2.48-.41,1-.64,1.43C655,208.88,654.48,209.58,654.82,210.52Z" transform="translate(-562 -107.88)"/>
    <path d="M618.6,223.08c.13-.26.52,0,.4.24-2.07,4.38-5.12,8.11-7.78,12.13s-4.64,8.3-3.42,13.2a21.38,21.38,0,0,0,7.92,12,16.32,16.32,0,0,0,6.28,3c2.54.47,4.55-.19,7-.82h.11c1.49-.41,3-.85,4.42-1.39.59-.34,1.19-.67,1.8-1a.37.37,0,0,1,.38,0,14.34,14.34,0,0,0,7.53-7.41.23.23,0,0,1,.44.12c-.9,5.26-4.85,7.79-9.43,9.32a12.11,12.11,0,0,1-5,2.17h40.67a11.12,11.12,0,0,1-4.07-1.94c-4.57-1.53-8.53-4.06-9.43-9.31a.23.23,0,0,1,.44-.13,14.39,14.39,0,0,0,7.53,7.42.37.37,0,0,1,.38-.05c.62.31,1.22.64,1.81,1a46.33,46.33,0,0,0,4.42,1.39h.1c2.54.67,4.74,1.41,7.39.73a16.83,16.83,0,0,0,6.4-3.32,21.52,21.52,0,0,0,7.49-12c1-4.93-1-9.16-3.78-13.16-2.63-3.84-5.52-7.51-7.51-11.75-.13-.26.26-.5.4-.23,2.44,4.86,6.7,8.61,9.57,13.22a18.19,18.19,0,0,1,3,9l8.29-30.64c-2.27-2.44-5.4-3.61-8.61-4.68a.6.6,0,0,1-.19,0,74.34,74.34,0,0,1-14.12-3.56H658.2c-.57,1.73-1.44,4-2.9,4.18a.4.4,0,0,1-.48-.27c-.34-.94.22-1.64.62-2.48.23-.47.44-.95.64-1.43H644c.17.41.35.8.55,1.2.42.82,1,1.55.62,2.48a.4.4,0,0,1-.47.27c-1.39-.2-2.26-2.26-2.84-3.95H619.94a73.73,73.73,0,0,1-13.44,3.32.83.83,0,0,1-.22,0,33.28,33.28,0,0,0-5.37,2.16l5.45,30.37A19.22,19.22,0,0,1,609,236.3C611.94,231.74,616.16,227.93,618.6,223.08ZM660,214.51c.91-1,2.79-1.58,4-2.14,1.58-.7,3.14-1.48,4.71-2.2a26.5,26.5,0,0,1,8.9-2.59c1.06-.08,1,1.51,0,1.63-3.5.4-6.73,1.92-9.87,3.42a36.48,36.48,0,0,1-4,1.76c-1.11.38-2.48,1-3.65.61A.3.3,0,0,1,660,214.51Zm-37.71-7.16a26.89,26.89,0,0,1,9.37,2.81c1.57.73,3.15,1.45,4.7,2.21,1.14.55,2.74.94,3.58,1.9a.3.3,0,0,1-.13.49c-1.28.42-2.92-.31-4.13-.78-1.36-.52-2.67-1.18-4-1.81a30.49,30.49,0,0,0-9.4-3.19C621.31,208.86,621.27,207.26,622.33,207.35Z" transform="translate(-562 -107.88)" fill="#f7dfa9"/>
    <path d="M684.47,262.87a16,16,0,0,1-3.93,1.83h6.28a34.42,34.42,0,0,0,.82-4.42A19.09,19.09,0,0,1,684.47,262.87Z" transform="translate(-562 -107.88)" fill="#f7dfa9"/>
    <path d="M612.36,259.86a34.38,34.38,0,0,0,.9,4.84h6.56A17.92,17.92,0,0,1,612.36,259.86Z" transform="translate(-562 -107.88)" fill="#f7dfa9"/>
    <path d="M681.43,223.32c-.14-.27-.53,0-.4.23,2,4.24,4.88,7.91,7.51,11.75,2.74,4,4.76,8.23,3.78,13.16a21.52,21.52,0,0,1-7.49,12,16.83,16.83,0,0,1-6.4,3.32c-2.65.68-4.85-.06-7.39-.73h-.1a46.33,46.33,0,0,1-4.42-1.39c-.59-.33-1.19-.66-1.81-1a.37.37,0,0,0-.38.05,14.39,14.39,0,0,1-7.53-7.42.23.23,0,0,0-.44.13c.9,5.25,4.86,7.78,9.43,9.31a11.12,11.12,0,0,0,4.07,1.94h10.68a16,16,0,0,0,3.93-1.83,19.09,19.09,0,0,0,3.17-2.59,34.42,34.42,0,0,1-.82,4.42h2l.27-1c.09-.84.25-1.69.29-2.53a34.51,34.51,0,0,1,.65-3.46.5.5,0,0,0,0-.3c.5-.73,1-1.48,1.39-2.25l2.61-9.65a18.19,18.19,0,0,0-3-9C688.13,231.93,683.87,228.18,681.43,223.32Z" transform="translate(-562 -107.88)"/>
    <path d="M613.26,264.7a34.38,34.38,0,0,1-.9-4.84,17.92,17.92,0,0,0,7.46,4.84h9.37a12.11,12.11,0,0,0,5-2.17c4.58-1.53,8.53-4.06,9.43-9.32a.23.23,0,0,0-.44-.12,14.34,14.34,0,0,1-7.53,7.41.37.37,0,0,0-.38,0c-.61.3-1.21.63-1.8,1-1.43.54-2.93,1-4.42,1.39H629c-2.43.63-4.44,1.29-7,.82a16.32,16.32,0,0,1-6.28-3,21.38,21.38,0,0,1-7.92-12c-1.22-4.9.77-9.17,3.42-13.2s5.71-7.75,7.78-12.13c.12-.27-.27-.5-.4-.24-2.44,4.85-6.66,8.66-9.58,13.22a19.22,19.22,0,0,0-2.66,6.17l2.21,12.3a26.73,26.73,0,0,0,1.46,2.29.48.48,0,0,0-.06.4,30.67,30.67,0,0,1,.65,3.44c.06,1.05.33,2.12.34,3.18,0,.2,0,.41,0,.62h2.3Z" transform="translate(-562 -107.88)"/>
    <path d="M677.06,265.66a.44.44,0,0,0,.49-.4,13.58,13.58,0,0,0,3-.56H669.86A37.93,37.93,0,0,0,677.06,265.66Z" transform="translate(-562 -107.88)"/>
    <path d="M622.52,265.18a.42.42,0,0,0,.45.24,44.17,44.17,0,0,0,6.22-.72h-9.37A11.43,11.43,0,0,0,622.52,265.18Z" transform="translate(-562 -107.88)"/>
    <path d="M606.5,209.93a73.73,73.73,0,0,0,13.44-3.32h-5.18a74.8,74.8,0,0,1-7.33,1.58,7.44,7.44,0,0,0-1.35.22h0a.66.66,0,0,0-.2.06,3.81,3.81,0,0,0-1.69.95,26.77,26.77,0,0,0-3.5,1.37l.23,1.31a33.28,33.28,0,0,1,5.37-2.16A.83.83,0,0,0,606.5,209.93Z" transform="translate(-562 -107.88)"/>
    <path d="M693.41,210.17a.61.61,0,0,0,.19,0c3.21,1.07,6.34,2.24,8.61,4.68l.43-1.58a17.57,17.57,0,0,0-6.95-3.64,3.76,3.76,0,0,0-1.66-.93l-.2,0h0a8.25,8.25,0,0,0-1.34-.21,75.88,75.88,0,0,1-8.14-1.82h-5.05A74.34,74.34,0,0,0,693.41,210.17Z" transform="translate(-562 -107.88)"/>
  </g>
  <g id="neck">
    <polygon points="100.57 78.21 100.57 78.21 100.57 78.21 100.57 78.21" fill="#f7dfa9"/>
    <path d="M641.25,205.05c-.92-2.66-1.4-5.41-2.14-8.11a.56.56,0,0,1,1.08-.3c.87,2.47,1.79,4.93,2.7,7.4.31.86.64,1.73,1,2.57H656q.49-1.16.93-2.34c.92-2.46,1.83-4.92,2.7-7.4a.56.56,0,0,1,1.08.3c-.74,2.7-1.17,5.48-2.14,8.11-.13.36-.28.82-.45,1.33h21.21c-1.38-.49-2.74-1-4.08-1.57-3.31-1.39-7.34-3.27-10-6.14a.51.51,0,0,1-.51-.23,9.42,9.42,0,0,1-.75-1.4,9.8,9.8,0,0,1-1.14-2.53.41.41,0,0,1,0-.29,7.31,7.31,0,0,1,.22-4.24,49.33,49.33,0,0,1,.62-5c-.37.31-.74.6-1.13.88h0a18.42,18.42,0,0,1-3,1.84.76.76,0,0,1-.46.56,21,21,0,0,1-10.87,1.2,20.1,20.1,0,0,1-7.57-1.43.74.74,0,0,1-.46-.55,21,21,0,0,1-4.13-2.73,49.33,49.33,0,0,1,.62,5,7.4,7.4,0,0,1,.22,4.24.47.47,0,0,1,0,.29,34.06,34.06,0,0,1-1.89,3.93.5.5,0,0,1-.5.22c-2.71,3-6.92,4.89-10.34,6.3q-2.16.89-4.39,1.65h22C641.56,206,641.39,205.46,641.25,205.05Z" transform="translate(-562 -107.88)" fill="#f7dfa9"/>
    <path d="M640.19,196.64a.56.56,0,0,0-1.08.3c.74,2.7,1.22,5.45,2.14,8.11.14.41.31,1,.51,1.56h2.14c-.37-.84-.7-1.71-1-2.57C642,201.57,641.06,199.11,640.19,196.64Z" transform="translate(-562 -107.88)"/>
    <path d="M660.67,197.17a.56.56,0,0,0-1.08-.3c-.87,2.48-1.78,4.94-2.7,7.4q-.43,1.18-.93,2.34h2.12c.17-.51.32-1,.45-1.33C659.5,202.65,659.93,199.87,660.67,197.17Z" transform="translate(-562 -107.88)"/>
    <path d="M662.57,186.08c.39-.28.76-.57,1.13-.88a49.33,49.33,0,0,0-.62,5,7.31,7.31,0,0,0-.22,4.24.41.41,0,0,0,0,.29,9.8,9.8,0,0,0,1.14,2.53,9.42,9.42,0,0,0,.75,1.4.51.51,0,0,0,.51.23c2.62,2.87,6.65,4.75,10,6.14,1.34.56,2.7,1.08,4.08,1.57h5.05c-2.34-.65-4.65-1.4-6.91-2.24a43.74,43.74,0,0,1-8.61-4.21,17.12,17.12,0,0,1-3.44-2.82,22.55,22.55,0,0,1-1.18-6.23,43.87,43.87,0,0,1,.48-6.77c.46-.42.91-.85,1.34-1.29h0Z" transform="translate(-562 -107.88)"/>
    <path d="M624.2,205c3.42-1.41,7.63-3.33,10.34-6.3a.5.5,0,0,0,.5-.22,34.06,34.06,0,0,0,1.89-3.93.47.47,0,0,0,0-.29,7.4,7.4,0,0,0-.22-4.24,49.33,49.33,0,0,0-.62-5,21,21,0,0,0,4.13,2.73.74.74,0,0,0,.46.55,20.1,20.1,0,0,0,7.57,1.43,21,21,0,0,0,10.87-1.2.76.76,0,0,0,.46-.56,18.42,18.42,0,0,0,3-1.84l-8,3.61-11.06-2.23c-4.39-.13-9.26-4.17-9.54-4.4.36.35.72.71,1.09,1.05a58.8,58.8,0,0,1,.5,6.22,21.53,21.53,0,0,1-1.19,6.76,17.37,17.37,0,0,1-3.16,2.64,40.51,40.51,0,0,1-8.53,4.27,79.11,79.11,0,0,1-8.07,2.61h5.17Q622,205.84,624.2,205Z" transform="translate(-562 -107.88)"/>
  </g>
  <g id="head">
    <path d="M682.67,160.65c4.37,2.8,5.88-7.66,6-10.14s.22-5.41-.94-7.65c-.87-1.66-2.21-1.36-3.41-.52a.27.27,0,0,1,0,.33l-.1.08-.09.07L684,143l-.07.06c-.3.33-.58.67-.87,1a9,9,0,0,1-.7.85c0,2.05-.05,4.12,0,6.18C682.51,154.21,682.8,157.46,682.67,160.65Z" transform="translate(-562 -107.88)" fill="#f7dfa9"/>
    <path d="M618.29,143.8c-.29-.34-.56-.68-.87-1l-.07-.07a1.06,1.06,0,0,0-.15-.15l-.1-.07-.07-.06a.29.29,0,0,1,0-.33c-1.25-.87-2.65-1.15-3.47.65-1.06,2.34-1,5.24-.86,7.75s1.69,12.69,6,9.9c-.13-3.34.2-6.74.3-10,.06-1.91,0-3.82,0-5.72A9.28,9.28,0,0,1,618.29,143.8Z" transform="translate(-562 -107.88)" fill="#f7dfa9"/>
    <path d="M652.44,188.15a.87.87,0,0,1,.55.24,27.11,27.11,0,0,0,4-.14.73.73,0,0,1,.39-.26c5.48-1.61,9.46-6.41,13.09-10.55,2.75-3.14,7.73-5.63,9.24-9.74.07-.22.14-.44.2-.66,0,0,0-.11,0-.17,1.42-5.24.62-10.93.47-16.27-.18-6.09.84-12.7-1.23-18.57a.55.55,0,0,1,.35-.74,66.74,66.74,0,0,0-3.24-7.09c-1.67-3.14-3.53-6.5-6.23-8.89a19.48,19.48,0,0,0-9.1-4.38,37.22,37.22,0,0,0-4.69-.64c-1.14-.07-2.8.2-3.76-.49a.31.31,0,0,1-.11-.09,8,8,0,0,0-1.68-.38,9,9,0,0,0-1.8,0,.67.67,0,0,1-.19.22c-1.09.75-3,.41-4.3.53a34,34,0,0,0-4.8.74,18.72,18.72,0,0,0-8.79,4.55c-4.21,4.16-7,10-9.15,15.66a.54.54,0,0,1,.36.75c-2.07,5.88-1,12.47-1.22,18.57-.19,5.32-1,11,.46,16.25,0,.08,0,.16.07.25s.07.22.11.34c.76,2.23,2.74,4,4.47,5.54a51.65,51.65,0,0,1,5.13,4.79c3.53,4,7.47,8.65,12.8,10.21a.78.78,0,0,1,.4.26C647,188.37,649.71,188,652.44,188.15Z" transform="translate(-562 -107.88)" fill="#f7dfa9"/>
    <path d="M643.92,187.75c-5.33-1.56-9.27-6.17-12.8-10.21a51.65,51.65,0,0,0-5.13-4.79c-1.73-1.51-3.71-3.31-4.47-5.54,0-.12-.08-.23-.11-.34s0-.17-.07-.25c-1.41-5.23-.65-10.93-.46-16.25.21-6.1-.85-12.69,1.22-18.57a.54.54,0,0,0-.36-.75c2.14-5.64,4.94-11.5,9.15-15.66a18.72,18.72,0,0,1,8.79-4.55,34,34,0,0,1,4.8-.74c1.28-.12,3.21.22,4.3-.53a.67.67,0,0,0,.19-.22,9,9,0,0,1,1.8,0,8,8,0,0,1,1.68.38.31.31,0,0,0,.11.09c1,.69,2.62.42,3.76.49a37.22,37.22,0,0,1,4.69.64,19.48,19.48,0,0,1,9.1,4.38c2.7,2.39,4.56,5.75,6.23,8.89a66.74,66.74,0,0,1,3.24,7.09.55.55,0,0,0-.35.74c2.07,5.87,1,12.48,1.23,18.57.15,5.34.95,11-.47,16.27,0,.06,0,.12,0,.17-.06.22-.13.44-.2.66-1.51,4.11-6.49,6.6-9.24,9.74-3.63,4.14-7.61,8.94-13.09,10.55a.73.73,0,0,0-.39.26,27.11,27.11,0,0,1-4,.14.87.87,0,0,0-.55-.24c-2.73-.16-5.44.22-8.12-.14l11,2.24,8-3.61h0l3.45-3h0c1.54-1.56,3-3.23,4.39-4.85,2.88-3.32,7.67-5.64,9.48-9.77a.6.6,0,0,0,.36-.34,21.21,21.21,0,0,0,1.58-6.87c4.93,2.7,7-7.81,7.24-11,.24-2.83.33-6.49-1.31-9s-4.25-.94-5.85.77a.42.42,0,0,0-.11.4l-.25.22a35.55,35.55,0,0,0-.92-8.67.41.41,0,0,0,.16-.47c-1.87-7-5.05-14.71-10.38-19.77a20.49,20.49,0,0,0-8.86-4.66,30.74,30.74,0,0,0-5.12-.85,15.22,15.22,0,0,0-3.62-.19,7.32,7.32,0,0,0-2.35-.59,9,9,0,0,0-3.86.33,18.89,18.89,0,0,0-2.9.18,33.08,33.08,0,0,0-5.23.82,20.89,20.89,0,0,0-9.07,4.7c-2.78,2.47-4.76,6-6.41,9.27a53.37,53.37,0,0,0-4,10.53.42.42,0,0,0,.15.47,35.52,35.52,0,0,0-.92,8.66l-.24-.21a.45.45,0,0,0-.12-.41c-1.62-1.73-4-3.22-5.77-.87s-1.59,6.15-1.4,8.86c.22,3.23,2.27,14,7.26,11.26a21.08,21.08,0,0,0,1.58,6.87.63.63,0,0,0,.36.34c1.76,4,6.37,6.19,9.19,9.43,1.58,1.81,3.18,3.71,4.91,5.43.28.24,5.16,4.28,9.55,4.4A.78.78,0,0,0,643.92,187.75Zm38.42-42.86a9,9,0,0,0,.7-.85c.29-.35.57-.69.87-1L684,143l.14-.14.09-.07.1-.08a.27.27,0,0,0,0-.33c1.2-.84,2.54-1.14,3.41.52,1.16,2.24,1.08,5.22.94,7.65s-1.66,12.94-6,10.14c.13-3.19-.16-6.44-.29-9.58C682.29,149,682.33,146.94,682.34,144.89ZM619,150.37c-.1,3.3-.43,6.7-.3,10-4.33,2.79-5.84-7.43-6-9.9s-.2-5.41.86-7.75c.82-1.8,2.22-1.52,3.47-.65a.29.29,0,0,0,0,.33l.07.06.1.07a1.06,1.06,0,0,1,.15.15l.07.07c.31.33.58.67.87,1a9.28,9.28,0,0,0,.7.85C619,146.55,619,148.46,619,150.37Z" transform="translate(-562 -107.88)"/>
  </g>
</svg>
