<svg id="Layer_1" data-name="Layer 1" xmlns="http://www.w3.org/2000/svg" viewBox="0 0 206.56 606.93">
  <title>male1</title>
  <g id="arm_2" data-name="arm 2">
    <path d="M567.13,261.55a19.64,19.64,0,0,1,3-3.83l-1.35-.52a18.57,18.57,0,0,0-2.45,3.87C566.08,261.61,566.83,262.08,567.13,261.55Z" transform="translate(-533.49 -58)"/>
    <g>
      <path d="M540.53,261.48c-3.14,8.9-1.46,18.1-.78,27.27s-.23,18.23-1.65,27.33c-.85,5.45-1.85,11-2.31,16.52H551.4c-.61-3.89.47-7.93,1.73-11.69a155.67,155.67,0,0,1,7-18.06c3.32-6.84,7.27-13.69,8.54-21.28,1.24-7.43,0-15.62,2.07-22.91a3.22,3.22,0,0,1,0-.69l-.64-.25a19.64,19.64,0,0,0-3,3.83c-.3.53-1,.06-.8-.48a18.57,18.57,0,0,1,2.45-3.87l-22-8.44A85.26,85.26,0,0,0,540.53,261.48Z" transform="translate(-533.49 -58)" fill="#f7dfa9"/>
      <path d="M570.74,258.66c-2,7.29-.83,15.48-2.07,22.91-1.27,7.59-5.22,14.44-8.54,21.28a155.67,155.67,0,0,0-7,18.06c-1.26,3.76-2.34,7.8-1.73,11.69h1c-.49-4.8,1.8-10.36,3.32-14.49A197,197,0,0,1,564,299.19c3-6.08,5.84-12.34,7.1-19a97,97,0,0,0,1.38-21.55l-1.68-.64A3.22,3.22,0,0,0,570.74,258.66Z" transform="translate(-533.49 -58)"/>
      <path d="M538.1,316.08c1.42-9.1,2.33-18.11,1.65-27.33s-2.36-18.37.78-27.27a85.26,85.26,0,0,1,6.26-12.72l-1.33-.51a121.23,121.23,0,0,0-6,11.94c-3.5,8.53-2.22,17.72-1.45,26.64.88,10.09-.08,19.87-1.66,29.84-.83,5.26-1.78,10.58-2.22,15.93h1.68C536.25,327.06,537.25,321.53,538.1,316.08Z" transform="translate(-533.49 -58)"/>
    </g>
    <g>
      <path d="M707.21,261.19a17,17,0,0,0-1.85-3.07l-1.24.48a17.39,17.39,0,0,1,2.28,3.06C706.7,262.19,707.45,261.73,707.21,261.19Z" transform="translate(-533.49 -58)"/>
      <g>
        <path d="M733.78,288.87c.68-9.17,2.36-18.37-.78-27.28a77.41,77.41,0,0,0-5.79-11.86l-21.85,8.39a17,17,0,0,1,1.85,3.07c.24.54-.51,1-.81.47a17.39,17.39,0,0,0-2.28-3.06l-1.25.47c1.94,7.22.77,15.28,2,22.61,1.27,7.6,5.21,14.44,8.53,21.28a155.12,155.12,0,0,1,7,18.07c1.25,3.72,2.32,7.72,1.75,11.57h15.58c-.46-5.5-1.45-11-2.3-16.4C734,307.1,733.1,298.08,733.78,288.87Z" transform="translate(-533.49 -58)" fill="#f7dfa9"/>
        <path d="M733,261.59c3.14,8.91,1.46,18.11.78,27.28s.23,18.23,1.65,27.33c.85,5.41,1.84,10.9,2.3,16.4h1.68c-.44-5.31-1.39-10.6-2.21-15.81-1.57-10-2.53-19.76-1.66-29.84.77-8.92,2.05-18.12-1.45-26.65a110.15,110.15,0,0,0-5.55-11.08l-1.33.51A77.41,77.41,0,0,1,733,261.59Z" transform="translate(-533.49 -58)"/>
        <path d="M720.4,321a155.12,155.12,0,0,0-7-18.07c-3.32-6.84-7.26-13.68-8.53-21.28-1.23-7.33-.06-15.39-2-22.61l-1.83.71a96.43,96.43,0,0,0,1.42,20.49c1.27,6.69,4.12,13,7.1,19a198.07,198.07,0,0,1,8.23,18.92c1.51,4.1,3.77,9.61,3.33,14.38h1C722.72,328.75,721.65,324.75,720.4,321Z" transform="translate(-533.49 -58)"/>
      </g>
    </g>
  </g>
  <g id="forehand">
    <path d="M551.07,391.44a3.9,3.9,0,0,0,1.25,1.45q-.51-.63-1-1.29Z" transform="translate(-533.49 -58)" fill="#f7dfa9"/>
    <path d="M535.86,343.92c.07.64-.48.9-1,.79a80.66,80.66,0,0,0-.61,12.71,49.67,49.67,0,0,0,.85,7.19,21.48,21.48,0,0,1,.78,4.19c.12.67.21,1.34.29,2,1.25,4.5,2.9,9.55,7,11.77l0,0h.05c-2-4.57-4.52-8.9-6.62-13.44-.43-.93.94-1.75,1.39-.81,1.93,4,4.52,7.95,6,12.19,1.35,3.91,2.36,8.49,6.63,10.17h0c-4.44-6.62-6.5-15.24-8-22.69-.16-.81,1-1.15,1.24-.34,1.22,4.51,2.65,9,4.1,13.47s3,8.95,6.13,12.37a.94.94,0,0,1,.18.12,3.65,3.65,0,0,0,2.56,1.25,22.8,22.8,0,0,0,.17-4.52,5.3,5.3,0,0,0-.73-2.46,5.68,5.68,0,0,1-.83-1.4.36.36,0,0,1,.22-.44c-2.17-8.23-5.76-16.22-3.22-24.79a39.58,39.58,0,0,1-2.69-4.71c-.39-.9.86-1.7,1.35-.79,1.12,2.06,2.87,3.64,4,5.68s1.16,4,1.63,6.36a8.88,8.88,0,0,0,2.91,4.89,6.75,6.75,0,0,0,2.66,1.75,1.84,1.84,0,0,0,1.62-.37.84.84,0,0,1-.19-.35,68.28,68.28,0,0,1-2-11.72,55.13,55.13,0,0,0-.81-7.14c-.34-1.57-1.11-3.08-1-4.69a.42.42,0,0,1,.09-.24c-.15-.54-.29-1.08-.44-1.61a17.32,17.32,0,0,0-2.63-5.78c-2-2.68-3.87-6.22-6.91-7.85-.25-.14,0-.5.22-.38a9.83,9.83,0,0,1,1.84,1.15,13.2,13.2,0,0,1-.81-2.9H535.79A57.86,57.86,0,0,0,535.86,343.92Z" transform="translate(-533.49 -58)" fill="#f7dfa9"/>
    <path d="M552.21,335.5a9.83,9.83,0,0,0-1.84-1.15c-.25-.12-.47.24-.22.38,3,1.63,4.9,5.17,6.91,7.85a17.32,17.32,0,0,1,2.63,5.78c.15.53.29,1.07.44,1.61a.42.42,0,0,0-.09.24c-.12,1.61.65,3.12,1,4.69a55.13,55.13,0,0,1,.81,7.14,68.28,68.28,0,0,0,2,11.72.84.84,0,0,0,.19.35,1.84,1.84,0,0,1-1.62.37,6.75,6.75,0,0,1-2.66-1.75,8.88,8.88,0,0,1-2.91-4.89c-.47-2.39-.41-4.17-1.63-6.36s-2.89-3.62-4-5.68c-.49-.91-1.74-.11-1.35.79a39.58,39.58,0,0,0,2.69,4.71c-2.54,8.57,1,16.56,3.22,24.79a.36.36,0,0,0-.22.44,5.68,5.68,0,0,0,.83,1.4,5.3,5.3,0,0,1,.73,2.46,22.8,22.8,0,0,1-.17,4.52,3.65,3.65,0,0,1-2.56-1.25.94.94,0,0,0-.18-.12c-3.1-3.42-4.73-8.05-6.13-12.37s-2.88-9-4.1-13.47c-.21-.81-1.4-.47-1.24.34,1.47,7.45,3.53,16.07,8,22.69h0c-4.27-1.68-5.28-6.26-6.63-10.17-1.46-4.24-4.05-8.15-6-12.19-.45-.94-1.82-.12-1.39.81,2.1,4.54,4.6,8.87,6.62,13.44h-.05l0,0c-4.14-2.22-5.79-7.27-7-11.77-.08-.67-.17-1.34-.29-2a21.48,21.48,0,0,0-.78-4.19,49.67,49.67,0,0,1-.85-7.19,80.66,80.66,0,0,1,.61-12.71c.5.11,1-.15,1-.79a57.86,57.86,0,0,1-.07-11.32h-1.68a59,59,0,0,0,0,10.8.47.47,0,0,0-.08.19,64.1,64.1,0,0,0-.35,13.21A88.69,88.69,0,0,0,534.8,368a.51.51,0,0,0-.29.59c1.18,5.48,2.73,12.19,8.5,14.52a.23.23,0,0,0,.24-.05l.34.19c.15.35.31.7.46,1.06,1.31,3.24,3,6.07,6.38,7.39a.52.52,0,0,0,.27,0,3.88,3.88,0,0,0,1,1.37,9,9,0,0,0,1.12.92l.25.17a.71.71,0,0,0,.22.55,5.11,5.11,0,0,0,4.44,1.82.9.9,0,0,0,.86-.87c.17-1.69.95-8.18-1.44-9.46-1.49-7.63-4.63-14.77-3.23-22.5a12.4,12.4,0,0,1,1,2.74c.63,2.69,1,4.32,2.79,6.47,1.65,2,8.11,5.82,8.35.6a.5.5,0,0,0-.58-.51,3.39,3.39,0,0,0-.18-.39,2,2,0,0,0-.18-.32,68.38,68.38,0,0,1-1.86-12.19c-.18-2.83.18-7.68-2.1-9.86a28.51,28.51,0,0,0-3.69-8.44,41.56,41.56,0,0,0-4.23-5.43.42.42,0,0,0,.08-.48,9.88,9.88,0,0,1-.91-3.33h-1A13.2,13.2,0,0,0,552.21,335.5Zm-1.14,55.94.26.16q.48.66,1,1.29A3.9,3.9,0,0,1,551.07,391.44Z" transform="translate(-533.49 -58)"/>
    <g>
      <path d="M721.21,393a4.05,4.05,0,0,0,1.26-1.46l-.27.16C721.88,392.15,721.55,392.59,721.21,393Z" transform="translate(-533.49 -58)" fill="#f7dfa9"/>
      <path d="M721.32,335.61a10.76,10.76,0,0,1,1.84-1.15c.25-.12.47.25.22.38-3,1.64-5.25,5.39-7.16,8.19a19.5,19.5,0,0,0-2.52,6l-.3,1.09a.51.51,0,0,1,.1.24c.11,1.61-.65,3.13-1,4.7a54.93,54.93,0,0,0-.81,7.14,68.62,68.62,0,0,1-2,11.72.74.74,0,0,1-.19.34,1.83,1.83,0,0,0,1.63.38,6.72,6.72,0,0,0,2.65-1.75,8.85,8.85,0,0,0,2.91-4.89c.47-2.4.41-4.18,1.63-6.37,1.14-2,2.89-3.62,4-5.68.49-.9,1.75-.11,1.35.79a38.93,38.93,0,0,1-2.69,4.72c2.55,8.56-1,16.55-3.22,24.78a.36.36,0,0,1,.22.44,5.51,5.51,0,0,1-.83,1.4,5.5,5.5,0,0,0-.73,2.47,22.74,22.74,0,0,0,.18,4.51,3.62,3.62,0,0,0,2.56-1.24.7.7,0,0,1,.17-.13c3.1-3.41,4.74-8,6.14-12.36s2.87-9,4.09-13.48a.64.64,0,0,1,1.24.34c-1.47,7.46-3.53,16.08-8,22.69h0c4.28-1.68,5.28-6.26,6.63-10.17,1.46-4.24,4-8.15,6-12.19.45-.94,1.82-.12,1.39.82-2.1,4.54-4.6,8.87-6.62,13.44h0l0,0c4.14-2.22,5.79-7.27,7-11.77.08-.68.17-1.35.3-2a22.53,22.53,0,0,1,.77-4.19,48.15,48.15,0,0,0,.85-7.19,84.35,84.35,0,0,0-.61-12.7c-.5.1-1-.16-1-.79a58.31,58.31,0,0,0,.05-11.44H722.15A12.74,12.74,0,0,1,721.32,335.61Z" transform="translate(-533.49 -58)" fill="#f7dfa9"/>
      <path d="M739.43,343.52a58.58,58.58,0,0,0,0-10.92h-1.68a58.31,58.31,0,0,1-.05,11.44c-.08.63.47.89,1,.79a84.35,84.35,0,0,1,.61,12.7,48.15,48.15,0,0,1-.85,7.19,22.53,22.53,0,0,0-.77,4.19c-.13.67-.22,1.34-.3,2-1.25,4.5-2.9,9.55-7,11.77l0,0h0c2-4.57,4.52-8.9,6.62-13.44.43-.94-.94-1.76-1.39-.82-1.93,4-4.52,7.95-6,12.19-1.35,3.91-2.35,8.49-6.63,10.17h0c4.43-6.61,6.49-15.23,8-22.69a.64.64,0,0,0-1.24-.34c-1.22,4.52-2.65,9-4.09,13.48s-3,8.95-6.14,12.36a.7.7,0,0,0-.17.13,3.62,3.62,0,0,1-2.56,1.24,22.74,22.74,0,0,1-.18-4.51,5.5,5.5,0,0,1,.73-2.47,5.51,5.51,0,0,0,.83-1.4.36.36,0,0,0-.22-.44C719.91,378,723.5,370,721,361.42a38.93,38.93,0,0,0,2.69-4.72c.4-.9-.86-1.69-1.35-.79-1.12,2.06-2.87,3.65-4,5.68-1.22,2.19-1.16,4-1.63,6.37a8.85,8.85,0,0,1-2.91,4.89,6.72,6.72,0,0,1-2.65,1.75,1.83,1.83,0,0,1-1.63-.38.74.74,0,0,0,.19-.34,68.62,68.62,0,0,0,2-11.72,54.93,54.93,0,0,1,.81-7.14c.35-1.57,1.11-3.09,1-4.7a.51.51,0,0,0-.1-.24l.3-1.09a19.5,19.5,0,0,1,2.52-6c1.91-2.8,4.11-6.55,7.16-8.19.25-.13,0-.5-.22-.38a10.76,10.76,0,0,0-1.84,1.15,12.74,12.74,0,0,0,.83-3h-1a10.19,10.19,0,0,1-.91,3.44.43.43,0,0,0,.07.49,37.92,37.92,0,0,0-4.22,5.43,29.27,29.27,0,0,0-3.69,8.42c-2.29,2.18-1.93,7-2.11,9.88a67.61,67.61,0,0,1-1.87,12.2l-.17.3a2.87,2.87,0,0,0-.18.4.49.49,0,0,0-.58.51c.24,5.21,6.71,1.36,8.36-.61,1.8-2.15,2.15-3.78,2.78-6.46a12.67,12.67,0,0,1,1-2.75c1.41,7.73-1.73,14.87-3.23,22.5-2.39,1.28-1.61,7.77-1.44,9.47a.89.89,0,0,0,.86.86,5.08,5.08,0,0,0,4.44-1.81.76.76,0,0,0,.23-.56l.13-.09a9,9,0,0,0,1.24-1,3.6,3.6,0,0,0,1-1.37.51.51,0,0,0,.27,0c3.37-1.33,5.07-4.15,6.39-7.4.14-.36.3-.71.45-1.07a3.65,3.65,0,0,1,.34-.18.22.22,0,0,0,.25.05c5.76-2.33,7.31-9,8.5-14.51a.5.5,0,0,0-.3-.59,90.92,90.92,0,0,0,1.1-10.6,65.93,65.93,0,0,0-.32-13.83A.37.37,0,0,0,739.43,343.52ZM721.21,393c.34-.42.67-.86,1-1.3l.27-.16A4.05,4.05,0,0,1,721.21,393Z" transform="translate(-533.49 -58)"/>
    </g>
  </g>
  <g id="arm_1" data-name="arm 1">
    <path d="M580,186.75a.27.27,0,0,1-.53-.07A7.39,7.39,0,0,1,580.8,182V156a22.16,22.16,0,0,0-18.92,8.66c-9.79,12.25-4.59,29.48-3.44,43.59a.7.7,0,0,1-.82.77c-.33.43-.69.84-1,1.29-1.91,5.88-4.84,11.62-4.94,17.86-.07,4,1,7.74,1.73,11.63.49,2.55,1.25,5.54.45,8.07-.12.37-.74.44-.81,0-.32-1.91-.18-3.83-.52-5.75-.23-1.33-.51-2.65-.79-4-.15.46-.31.92-.48,1.37,0,.83.08,1.66.07,2.25a.27.27,0,0,1-.54,0c0-.29,0-.6-.06-.9a80.57,80.57,0,0,1-4,8.11l22,8.44c1.78-2.22,3.85-4.17,5.44-6.69,2.49-4,3.7-8.44,5.92-12.5a.91.91,0,0,1,.4-.4c.13-.3.25-.6.37-.9v-3.78a52.37,52.37,0,0,1-.89-15.19,33.4,33.4,0,0,1,.89-4.56v-12.2c-.36-1-.68-2-1-3.06a.26.26,0,0,1,.44-.24,15,15,0,0,0,.53,2.2V184.79C580.53,185.42,580.28,186.07,580,186.75Z" transform="translate(-533.49 -58)" fill="#f7dfa9"/>
    <g>
      <path d="M550.72,240.85c0,.3.06.61.06.9a.27.27,0,0,0,.54,0c0-.59-.07-1.42-.07-2.25.17-.45.33-.91.48-1.37.28,1.32.56,2.64.79,4,.34,1.92.2,3.84.52,5.75.07.44.69.37.81,0,.8-2.53,0-5.52-.45-8.07-.75-3.89-1.8-7.64-1.73-11.63.1-6.24,3-12,4.94-17.86.32-.45.68-.86,1-1.29a.7.7,0,0,0,.82-.77c-1.15-14.11-6.35-31.34,3.44-43.59A22.16,22.16,0,0,1,580.8,156v-1.72c-.63,0-1.25-.06-1.87-.07-7.77-.08-14.1,3.93-18.88,9.86-9.55,11.85-4.92,28.81-3.38,42.65a.43.43,0,0,0-.11.2c-1.62,6.49-5.2,12.53-5.92,19.24a32.25,32.25,0,0,0,.64,9.75s0,0,0,.05a3.36,3.36,0,0,0-.67,1.69,88.26,88.26,0,0,1-5.21,10.82l1.33.51A80.57,80.57,0,0,0,550.72,240.85Z" transform="translate(-533.49 -58)"/>
      <path d="M580.43,237.81a.91.91,0,0,0-.4.4c-2.22,4.06-3.43,8.54-5.92,12.5-1.59,2.52-3.66,4.47-5.44,6.69l1.35.52c.3-.31.6-.62.91-.92a6,6,0,0,0-.28,1.17l1.68.64c0-.5,0-1-.07-1.49a.55.55,0,0,0-.15-.37,9.58,9.58,0,0,1,.8-1.79A.49.49,0,0,0,573,255a24.53,24.53,0,0,0,2.85-3.29,50.84,50.84,0,0,0,5-9.48v-5.31C580.68,237.21,580.56,237.51,580.43,237.81Z" transform="translate(-533.49 -58)"/>
      <g>
        <path d="M722.57,241c0,.31-.05.61-.05.91a.27.27,0,0,1-.54,0c0-.6.07-1.43.07-2.26-.17-.45-.33-.9-.49-1.36-.27,1.31-.55,2.63-.78,4-.34,1.93-.2,3.85-.52,5.76-.07.43-.7.36-.81,0-.8-2.54,0-5.53.45-8.08.75-3.88,1.79-7.64,1.73-11.63-.1-6.24-3-12-5-17.86-.31-.45-.67-.86-1-1.29a.69.69,0,0,1-.82-.77c1.15-14.1,6.34-31.34-3.44-43.58-5.14-6.43-11.82-9.09-19.85-8.63v24.62c1.34,1.84,2.49,4,2.21,6a.26.26,0,0,1-.52.07,27.89,27.89,0,0,0-1.69-3.91v19.57A16,16,0,0,0,693,198a.25.25,0,0,1,.43.24,49,49,0,0,1-1.89,5.5v6.42a48.72,48.72,0,0,1,1.82,7.9c.64,5.61-.12,11.2-1.17,16.72-.07.38-.15.76-.23,1.14a.82.82,0,0,1,.23.34c.2.56.42,1.11.64,1.66a1,1,0,0,1,.41.4c2.22,4.06,3.43,8.55,5.92,12.5,1.77,2.82,4.15,4.92,6.06,7.5l21.85-8.39A86.59,86.59,0,0,1,722.57,241Z" transform="translate(-533.49 -58)" fill="#f7dfa9"/>
        <path d="M711.42,164.76c9.78,12.24,4.59,29.48,3.44,43.58a.69.69,0,0,0,.82.77c.33.43.69.84,1,1.29,1.92,5.89,4.85,11.62,5,17.86.06,4-1,7.75-1.73,11.63-.49,2.55-1.25,5.54-.45,8.08.11.36.74.43.81,0,.32-1.91.18-3.83.52-5.76.23-1.33.51-2.65.78-4,.16.46.32.91.49,1.36,0,.83-.08,1.66-.07,2.26a.27.27,0,0,0,.54,0c0-.3,0-.6.05-.91a86.59,86.59,0,0,0,4.53,9l1.32-.51a92.45,92.45,0,0,1-5.68-11.67,3.36,3.36,0,0,0-.67-1.69L722,236a31.93,31.93,0,0,0,.63-9.75c-.71-6.72-4.29-12.75-5.91-19.24a.42.42,0,0,0-.11-.21c1.54-13.84,6.16-30.8-3.38-42.65-4.78-5.93-11.11-9.94-18.88-9.85-.94,0-1.87.05-2.8.12v1.7C699.6,155.67,706.28,158.33,711.42,164.76Z" transform="translate(-533.49 -58)"/>
        <path d="M702.68,259a5,5,0,0,0-.32-1.86c.56.55,1.12,1.11,1.64,1.69l1.25-.48c-1.91-2.58-4.29-4.68-6.06-7.5-2.49-3.95-3.7-8.44-5.92-12.5a1,1,0,0,0-.41-.4c-.22-.55-.44-1.1-.64-1.66a.82.82,0,0,0-.23-.34c.08-.38.16-.76.23-1.14,1-5.52,1.81-11.11,1.17-16.72a48.72,48.72,0,0,0-1.82-7.9V240a56,56,0,0,0,5.91,11.84,24.53,24.53,0,0,0,2.85,3.29.32.32,0,0,0,.06.17,8.91,8.91,0,0,1,.78,1.8.52.52,0,0,0-.13.35c0,.84-.09,1.69-.11,2.54l1.83-.7C702.73,259.17,702.71,259.07,702.68,259Z" transform="translate(-533.49 -58)"/>
      </g>
    </g>
    <path d="M580.91,232.93V213.18a35,35,0,0,0-.88,4.56A52.36,52.36,0,0,0,580.91,232.93Z" transform="translate(-533.49 -58)"/>
    <path d="M583,205.85a39.44,39.44,0,0,1-2.05-4.87v12.2C581.54,210.72,582.35,208.32,583,205.85Z" transform="translate(-533.49 -58)" fill="#f7dfa9"/>
  </g>
  <g id="foot">
    <path d="M584.19,649l.06-.06.09-.09a1,1,0,0,1-.05-.25C584.26,648.78,584.23,648.91,584.19,649Z" transform="translate(-533.49 -58)" fill="#f7dfa9"/>
    <path d="M572.23,619.6a.71.71,0,0,1-1.42,0c0-.75,0-1.49.06-2.24-1.45,2.77-2.6,5.43-2,8.72l.35-.49c.42-.59,1.4,0,1,.58A86.55,86.55,0,0,1,559.47,640a70,70,0,0,0-6.91,7.68c-1.27,1.68-2.56,3.69-4.43,4.73l-.07,0-.1.1a12.51,12.51,0,0,0-.84.94c-.51,1.17-.63,2.37.4,3.28a.69.69,0,0,1,.22-.16,17.62,17.62,0,0,0,.76-3.52.23.23,0,0,1,.34-.17,8.32,8.32,0,0,1,1.2-1.17c.25-.24.57.16.29.37a6.91,6.91,0,0,0-1.29,1,0,0,0,0,1,0,0,9.67,9.67,0,0,1-.44,4,7.93,7.93,0,0,0,1.23,1.09l0,0a8.37,8.37,0,0,1,1.37-4.92c1-1.45,2.53-3.46,4.33-3.81.29-.06.62.25.42.55-1,1.48-2.7,2.26-3.63,3.91a9.09,9.09,0,0,0-1.18,5.32,1.81,1.81,0,0,0,1.94.76,7.39,7.39,0,0,1,1-3.83,36.23,36.23,0,0,1,2.86-4.55.59.59,0,0,1,1.07.45c-.19,1.3-1.25,2.5-1.91,3.6a8.64,8.64,0,0,0-1.56,4.19c.55.92,1.49,2,2.68,1.88a2.34,2.34,0,0,0,2.17-1.62,26,26,0,0,0,.57-3.93.65.65,0,0,1,.39-.54c.24-.43.57-.57.86-.95a11.79,11.79,0,0,1,1-1.18,13.54,13.54,0,0,1,1.27-1.8c.54-.65,1.38.14,1.1.81a.35.35,0,0,1,.06.49c-.7,1-1.45,2-2.16,3v.33a.09.09,0,0,1,0,.05.34.34,0,0,1,.05.46c-6.26,8.88,9.77,7.92,8.53,2.09-.2-.93,1.23-1.32,1.42-.39a5.11,5.11,0,0,1,.11.92,3.39,3.39,0,0,0,2-1.53,2.45,2.45,0,0,0,.18-1.1.36.36,0,0,1,0-.39h0a1.54,1.54,0,0,1,.28-1,.45.45,0,0,1,.45-.13c.32-.43.66-.85,1-1.31a2.65,2.65,0,0,0,.58-1.49,5.25,5.25,0,0,1,0-1,.21.21,0,0,1,.25-.14c1.79.69.35,2.72-.8,4.17a12,12,0,0,0,6.6-5.46c1-2.09.76-5.09,2.57-6.71.06-.06.16,0,.12.1a15.39,15.39,0,0,0-1.32,4.48.82.82,0,0,1,.59-.36c5.11-.73,9.74-1.76,10.14-7.76a20.14,20.14,0,0,0-1.81-9,19.65,19.65,0,0,1-1.49-4.48,4.54,4.54,0,0,1-.14-.91,8.22,8.22,0,0,0-.34,1.13c-.12.54-.9.3-.81-.22.5-3.08,3.18-5.52,1.7-8.7a.9.9,0,0,1,.28-1.18c0-.5-.06-1-.1-1.48H573A25,25,0,0,0,572.23,619.6Zm-4.12,40.51a7.8,7.8,0,0,0-4.28-.35c-.45.07-.65-.61-.19-.7a8.64,8.64,0,0,1,4.7.24C568.85,659.48,568.62,660.3,568.11,660.11Z" transform="translate(-533.49 -58)" fill="#f7dfa9"/>
    <path d="M568.34,659.3a8.64,8.64,0,0,0-4.7-.24c-.46.09-.26.77.19.7a7.8,7.8,0,0,1,4.28.35C568.62,660.3,568.85,659.48,568.34,659.3Z" transform="translate(-533.49 -58)"/>
    <path d="M592.55,616.49a.9.9,0,0,0-.28,1.18c1.48,3.18-1.2,5.62-1.7,8.7-.09.52.69.76.81.22a8.22,8.22,0,0,1,.34-1.13,4.54,4.54,0,0,0,.14.91,19.65,19.65,0,0,0,1.49,4.48,20.14,20.14,0,0,1,1.81,9c-.4,6-5,7-10.14,7.76a.82.82,0,0,0-.59.36,15.39,15.39,0,0,1,1.32-4.48c0-.08-.06-.16-.12-.1-1.81,1.62-1.55,4.62-2.57,6.71a12,12,0,0,1-6.6,5.46c1.15-1.45,2.59-3.48.8-4.17a.21.21,0,0,0-.25.14,5.25,5.25,0,0,0,0,1,2.65,2.65,0,0,1-.58,1.49c-.29.46-.63.88-1,1.31a.45.45,0,0,0-.45.13,1.54,1.54,0,0,0-.28,1h0a.36.36,0,0,0,0,.39,2.45,2.45,0,0,1-.18,1.1,3.39,3.39,0,0,1-2,1.53,5.11,5.11,0,0,0-.11-.92c-.19-.93-1.62-.54-1.42.39,1.24,5.83-14.79,6.79-8.53-2.09a.34.34,0,0,0-.05-.46.09.09,0,0,0,0-.05v-.33c.71-1,1.46-2,2.16-3a.35.35,0,0,0-.06-.49c.28-.67-.56-1.46-1.1-.81a13.54,13.54,0,0,0-1.27,1.8,11.79,11.79,0,0,0-1,1.18c-.29.38-.62.52-.86.95a.65.65,0,0,0-.39.54,26,26,0,0,1-.57,3.93,2.34,2.34,0,0,1-2.17,1.62c-1.19.09-2.13-1-2.68-1.88a8.64,8.64,0,0,1,1.56-4.19c.66-1.1,1.72-2.3,1.91-3.6a.59.59,0,0,0-1.07-.45,36.23,36.23,0,0,0-2.86,4.55,7.39,7.39,0,0,0-1,3.83,1.81,1.81,0,0,1-1.94-.76,9.09,9.09,0,0,1,1.18-5.32c.93-1.65,2.62-2.43,3.63-3.91.2-.3-.13-.61-.42-.55-1.8.35-3.35,2.36-4.33,3.81a8.37,8.37,0,0,0-1.37,4.92l0,0a7.93,7.93,0,0,1-1.23-1.09,9.67,9.67,0,0,0,.44-4,0,0,0,0,0,0,0,6.91,6.91,0,0,1,1.29-1c.28-.21,0-.61-.29-.37a8.32,8.32,0,0,0-1.2,1.17.23.23,0,0,0-.34.17,17.62,17.62,0,0,1-.76,3.52.69.69,0,0,0-.22.16c-1-.91-.91-2.11-.4-3.28a12.51,12.51,0,0,1,.84-.94l.1-.1.07,0c1.87-1,3.16-3,4.43-4.73a70,70,0,0,1,6.91-7.68,86.55,86.55,0,0,0,10.75-13.79c.41-.62-.57-1.17-1-.58l-.35.49c-.61-3.29.54-6,2-8.72,0,.75-.06,1.49-.06,2.24a.71.71,0,0,0,1.42,0A25,25,0,0,1,573,615h-2c-2.11,3.85-4,7.22-3.55,11.77a.78.78,0,0,0,.26.55l-.07.19a2.69,2.69,0,0,0-.14.46,93.15,93.15,0,0,1-9.85,11.61A70.59,70.59,0,0,0,548,650.76c-2.43,1.81-3.49,5.61-.4,7.3a.55.55,0,0,0,.47,0,8.16,8.16,0,0,0,2,1.77c.71,1.37,2.18,1.83,3.92,1.44a.81.81,0,0,0,.31-.18,3.82,3.82,0,0,0,4.95,1.48,2.66,2.66,0,0,0,.86-.63l.06.17c.69,1.67,2.61,2.41,4.28,2.61,3.14.37,7.22-.89,8-4a5.43,5.43,0,0,0,3.11-2,4,4,0,0,0,.61-2.58c2.81-.4,4.95-2.22,6.68-4.43a6,6,0,0,0,.78-1.32,9.92,9.92,0,0,1,.93-.9l.13-.09a1,1,0,0,0,.54.15c4.83-.19,9.72-1,11.67-6,1.14-2.9.52-6.49-.28-9.4a42.61,42.61,0,0,0-1.77-4.72c-.67-1.69-.9-3.67-2-5.14h0s0-.08,0-.12c-.08-.31-.12-.63-.17-.95,1.06-2,2.14-3.86,1.23-6.37a.93.93,0,0,0-.56-.6l-.09-1.35h-.86C592.49,615.5,592.52,616,592.55,616.49ZM584.25,649l-.06.06c0-.13.07-.26.1-.4a1,1,0,0,0,.05.25Z" transform="translate(-533.49 -58)"/>
    <g>
      <path d="M689.2,649l.08.1.06.06c0-.13-.07-.27-.1-.4A2,2,0,0,1,689.2,649Z" transform="translate(-533.49 -58)" fill="#f7dfa9"/>
      <path d="M681,616.6a.9.9,0,0,1,.28,1.18c-1.48,3.19,1.2,5.63,1.7,8.7.09.53-.69.76-.81.23a7.47,7.47,0,0,0-.34-1.14,5.37,5.37,0,0,1-.13.92,20.1,20.1,0,0,1-1.5,4.47,20.3,20.3,0,0,0-1.81,9c.4,6,5,7,10.14,7.76a.8.8,0,0,1,.59.37,15.45,15.45,0,0,0-1.32-4.49.08.08,0,0,1,.13-.09c1.88,1.69,1.33,4.64,2.56,6.7a12.8,12.8,0,0,0,6.6,5.46c-1.15-1.45-2.58-3.48-.8-4.16a.2.2,0,0,1,.25.14,4.41,4.41,0,0,1,0,1,2.68,2.68,0,0,0,.58,1.5c.3.45.63.87.95,1.31a.42.42,0,0,1,.45.12,1.62,1.62,0,0,1,.29,1v0a.36.36,0,0,1,0,.39,2.41,2.41,0,0,0,.18,1.09,3.52,3.52,0,0,0,2,1.54,6.06,6.06,0,0,1,.11-.92c.19-.93,1.62-.54,1.42.39-1.24,5.83,14.8,6.78,8.53-2.09a.36.36,0,0,1,0-.46s0,0,0-.06v-.33c-.71-1-1.46-2-2.16-3a.36.36,0,0,1,.07-.5c-.29-.67.55-1.45,1.09-.81a14.22,14.22,0,0,1,1.27,1.8,11.79,11.79,0,0,1,1,1.18c.29.38.63.52.86,1a.63.63,0,0,1,.4.53,26,26,0,0,0,.56,3.94,2.35,2.35,0,0,0,2.17,1.61c1.2.09,2.13-1,2.69-1.87a8.68,8.68,0,0,0-1.57-4.19c-.66-1.11-1.72-2.31-1.9-3.61a.59.59,0,0,1,1.07-.45,38.21,38.21,0,0,1,2.86,4.55,7.49,7.49,0,0,1,1,3.84,1.83,1.83,0,0,0,1.94-.76,9.12,9.12,0,0,0-1.17-5.33c-.93-1.64-2.63-2.42-3.64-3.91-.2-.29.13-.61.43-.55,1.8.36,3.34,2.36,4.32,3.81a8.41,8.41,0,0,1,1.37,4.92l0,0a8,8,0,0,0,1.24-1.09,9.52,9.52,0,0,1-.45-4v0a6.91,6.91,0,0,0-1.29-1c-.28-.21,0-.61.29-.38a8.34,8.34,0,0,1,1.2,1.17.23.23,0,0,1,.34.18,18.68,18.68,0,0,0,.76,3.52.5.5,0,0,1,.22.16c1-.91.91-2.12.4-3.29a10.58,10.58,0,0,0-.83-.93l-.1-.1-.08,0c-1.87-1-3.16-3-4.43-4.73a68.88,68.88,0,0,0-6.9-7.68,86,86,0,0,1-10.76-13.78c-.41-.63.57-1.18,1-.58l.36.49c.6-3.29-.54-6-2-8.72,0,.74.07,1.49.07,2.23a.72.72,0,0,1-1.43,0,27,27,0,0,0-.8-4.7H681.09C681.05,615.54,681,616.07,681,616.6Zm24.21,42.81a8.64,8.64,0,0,1,4.7-.24c.46.09.26.78-.19.7a7.89,7.89,0,0,0-4.28.35C704.91,660.42,704.68,659.6,705.19,659.41Z" transform="translate(-533.49 -58)" fill="#f7dfa9"/>
      <path d="M705.42,660.22a7.89,7.89,0,0,1,4.28-.35c.45.08.65-.61.19-.7a8.64,8.64,0,0,0-4.7.24C704.68,659.6,704.91,660.42,705.42,660.22Z" transform="translate(-533.49 -58)"/>
      <path d="M701.3,619.71a.72.72,0,0,0,1.43,0c0-.74,0-1.49-.07-2.23,1.46,2.77,2.6,5.43,2,8.72l-.36-.49c-.42-.6-1.4-.05-1,.58a86,86,0,0,0,10.76,13.78,68.88,68.88,0,0,1,6.9,7.68c1.27,1.69,2.56,3.69,4.43,4.73l.08,0,.1.1a10.58,10.58,0,0,1,.83.93c.51,1.17.63,2.38-.4,3.29a.5.5,0,0,0-.22-.16,18.68,18.68,0,0,1-.76-3.52.23.23,0,0,0-.34-.18,8.34,8.34,0,0,0-1.2-1.17c-.25-.23-.57.17-.29.38a6.91,6.91,0,0,1,1.29,1v0a9.52,9.52,0,0,0,.45,4,8,8,0,0,1-1.24,1.09l0,0a8.41,8.41,0,0,0-1.37-4.92c-1-1.45-2.52-3.45-4.32-3.81-.3-.06-.63.26-.43.55,1,1.49,2.71,2.27,3.64,3.91a9.12,9.12,0,0,1,1.17,5.33,1.83,1.83,0,0,1-1.94.76,7.49,7.49,0,0,0-1-3.84,38.21,38.21,0,0,0-2.86-4.55.59.59,0,0,0-1.07.45c.18,1.3,1.24,2.5,1.9,3.61A8.68,8.68,0,0,1,719,660c-.56.91-1.49,2-2.69,1.87a2.35,2.35,0,0,1-2.17-1.61,26,26,0,0,1-.56-3.94.63.63,0,0,0-.4-.53c-.23-.44-.57-.58-.86-1a11.79,11.79,0,0,0-1-1.18,14.22,14.22,0,0,0-1.27-1.8c-.54-.64-1.38.14-1.09.81a.36.36,0,0,0-.07.5c.7,1,1.45,2,2.16,3v.33s0,0,0,.06a.36.36,0,0,0,0,.46c6.27,8.87-9.77,7.92-8.53,2.09.2-.93-1.23-1.32-1.42-.39a6.06,6.06,0,0,0-.11.92,3.52,3.52,0,0,1-2-1.54,2.41,2.41,0,0,1-.18-1.09.36.36,0,0,0,0-.39v0a1.62,1.62,0,0,0-.29-1,.42.42,0,0,0-.45-.12c-.32-.44-.65-.86-.95-1.31a2.68,2.68,0,0,1-.58-1.5,4.41,4.41,0,0,0,0-1,.2.2,0,0,0-.25-.14c-1.78.68-.35,2.71.8,4.16a12.8,12.8,0,0,1-6.6-5.46c-1.23-2.06-.68-5-2.56-6.7a.08.08,0,0,0-.13.09,15.45,15.45,0,0,1,1.32,4.49.8.8,0,0,0-.59-.37c-5.11-.72-9.74-1.76-10.14-7.76a20.3,20.3,0,0,1,1.81-9,20.1,20.1,0,0,0,1.5-4.47,5.37,5.37,0,0,0,.13-.92,7.47,7.47,0,0,1,.34,1.14c.12.53.9.3.81-.23-.5-3.07-3.18-5.51-1.7-8.7a.9.9,0,0,0-.28-1.18c0-.53.07-1.06.11-1.59h-.87c0,.48-.05,1-.09,1.46a1,1,0,0,0-.56.6c-.91,2.51.17,4.38,1.24,6.37l-.15.82a2,2,0,0,1-.07.26h0c-1.06,1.47-1.3,3.45-2,5.14a44.06,44.06,0,0,0-1.77,4.73c-.8,2.9-1.42,6.49-.28,9.4,1.95,5,6.84,5.79,11.67,6a.88.88,0,0,0,.54-.15l.13.1a7.83,7.83,0,0,1,.93.89,5.73,5.73,0,0,0,.78,1.32c1.73,2.21,3.87,4,6.68,4.43a4,4,0,0,0,.61,2.58,5.38,5.38,0,0,0,3.11,2c.78,3.08,4.86,4.35,8,4,1.67-.2,3.59-.94,4.28-2.61l.06-.17a2.8,2.8,0,0,0,.87.62,3.79,3.79,0,0,0,4.94-1.48.62.62,0,0,0,.31.18c1.74.39,3.21-.07,3.92-1.44a8,8,0,0,0,2.05-1.76.59.59,0,0,0,.47,0c3.09-1.7,2-5.49-.39-7.31a71.1,71.1,0,0,0-9.66-11.17A91.77,91.77,0,0,1,706,628.08a3.66,3.66,0,0,0-.13-.44l-.06-.2a.84.84,0,0,0,.26-.55c.41-4.57-1.47-8-3.6-11.83v0h-2A27,27,0,0,1,701.3,619.71Zm-12,29.39-.08-.1a2,2,0,0,0,0-.24c0,.13.06.27.1.4Z" transform="translate(-533.49 -58)"/>
    </g>
  </g>
  <g id="weene">
    <path d="M624.34,363.71c1.57,2.55,3.12,3.77,6.07,4.19l1.61.22h0a33,33,0,0,1,3.82.72,1,1,0,0,1,.76.69l.24,0H637a1,1,0,0,1,.7-.55,35.68,35.68,0,0,1,3.82-.72h0l1.62-.23c2.94-.42,4.5-1.63,6.06-4.19,2.74-4.46,2.35-9.93,3.56-14.83a13,13,0,0,1,.71-2.07H620.12a14,14,0,0,1,.66,1.95C622,353.77,621.6,359.25,624.34,363.71Z" transform="translate(-533.49 -58)" fill="#f7dfa9"/>
    <path d="M622.06,361.86l3.76,6.16a11.88,11.88,0,0,0,4.92,2l.16.07.42.13a40.18,40.18,0,0,1-.61,5.79l1.5,2.46a48.5,48.5,0,0,0,.59-7.87c.65.14,1.35.25,2.06.33l.41.12a1,1,0,0,0,.76,0c.42,0,.85,0,1.27,0a1,1,0,0,0,1,.16c.79-.24,1.62-.43,2.47-.6a56.39,56.39,0,0,0,.69,9c0,.26.06.51.08.77l1.58-2.59a46.64,46.64,0,0,1-.88-7.43c2.58-.54,5.11-1.23,6.77-3.47,3.32-4.47,3.63-9.89,4.83-15.14a18.5,18.5,0,0,1,1.82-4.76h-2.17a13,13,0,0,0-.71,2.07c-1.21,4.9-.82,10.37-3.56,14.83-1.56,2.56-3.12,3.77-6.06,4.19l-1.62.23h0a35.68,35.68,0,0,0-3.82.72,1,1,0,0,0-.7.55h-.07l-.24,0a1,1,0,0,0-.76-.69,33,33,0,0,0-3.82-.72h0l-1.61-.22c-2.95-.42-4.5-1.64-6.07-4.19-2.74-4.46-2.34-9.94-3.56-14.84a14,14,0,0,0-.66-1.95H618a18.9,18.9,0,0,1,1.77,4.65C620.52,355,620.93,358.56,622.06,361.86Z" transform="translate(-533.49 -58)"/>
    <path d="M630.9,370.12l-.16-.07a11.88,11.88,0,0,1-4.92-2l4.89,8a40.18,40.18,0,0,0,.61-5.79Z" transform="translate(-533.49 -58)" fill="#f7dfa9"/>
    <path d="M649,366.82c-1.66,2.24-4.19,2.93-6.77,3.47a46.64,46.64,0,0,0,.88,7.43l18.78-30.8h-6.24a18.5,18.5,0,0,0-1.82,4.76C652.61,356.93,652.3,362.35,649,366.82Z" transform="translate(-533.49 -58)" fill="#f7dfa9"/>
    <path d="M619.73,351.57a18.9,18.9,0,0,0-1.77-4.65h-5l9.11,14.94C620.93,358.56,620.52,355,619.73,351.57Z" transform="translate(-533.49 -58)" fill="#f7dfa9"/>
    <path d="M624.55,366.71a7.19,7.19,0,0,0,1.27,1.31l-3.76-6.16A17.86,17.86,0,0,0,624.55,366.71Z" transform="translate(-533.49 -58)"/>
  </g>
  <g id="legs">
    <path d="M679.16,497.53c.08.21-.2.31-.33.2a16.76,16.76,0,0,1-5.16-9.5h-7.19a22,22,0,0,0,2,5.12c1.18,2.15,3.26,5,3,7.67.66,4.72-.48,8.91-1.86,13.43a46.79,46.79,0,0,0-1.81,16.89,76.83,76.83,0,0,0,2.5,17.07,28.84,28.84,0,0,0,3.06,7.58,34,34,0,0,1,3.6,6.75,7.26,7.26,0,0,1,1.13,3.08,12.31,12.31,0,0,1,0,4.28c3.73,14.51,3.92,30.08,3,44.91H700.5q-.13-.64-.21-1.23a73.66,73.66,0,0,1-.35-8.78c0-5.6.7-11.19,1.29-16.74,1.07-10.09,1.3-20.13,3.11-30.1-.14-5.69,1.35-11.57,2.14-17.17A112.4,112.4,0,0,0,708,521c-.42-11.3-6.16-21.6-6.35-32.78H675.52A85.22,85.22,0,0,0,679.16,497.53ZM687,538.59c0,.23-.39.33-.44.06-1.12-6.93-4.45-14.36-1.72-21.21.36-.91,1.81-.55,1.48.41-1.1,3.21-.38,7.28-.19,10.61S687.36,535.17,687,538.59Zm12.26-33.34c1.19,2.69.55,5.52-.18,8.26-1,3.86-2.66,7.56-3.9,11.35a98.13,98.13,0,0,0-2.73,12c-.79,4.14.27,8.22-.37,12.28,0,.21-.39.21-.43,0a68.14,68.14,0,0,1,.4-21.66,51.3,51.3,0,0,1,3.32-10.89c1.47-3.68,2-7.64,3.44-11.28C698.85,505.13,699.14,505,699.23,505.25Zm-2.59-13.19c-.24-.76.9-1,1.17-.32a10.06,10.06,0,0,1,.62,4.21,5.05,5.05,0,0,1-.75,2.83c-.18.81-.35,1.61-.54,2.41l0,.15a.09.09,0,0,1,0,.05c-.82,4-2.93,7.69-3,11.76a.19.19,0,0,1-.37.05c-1.28-3.53.09-6.74,1.17-10.05a6.93,6.93,0,0,1,.49-2.43c.35-1.32.61-2.65,1-4a.79.79,0,0,1,.53-.57A8,8,0,0,0,696.64,492.06Zm-14.09.53c1.24.53,1.9,1.43,3.36,1.5a9.17,9.17,0,0,0,4.22-1.29,20.49,20.49,0,0,0,6-4.37c.23-.26.57.11.37.36a20.32,20.32,0,0,1-8.12,6.49c-2.22.92-6.4.93-6.72-2.18C681.62,492.6,682.2,492.44,682.55,492.59Zm-1.72,11.76a3.79,3.79,0,0,0,.4-2.75c-.13-.48.61-.82.81-.35a4.17,4.17,0,0,1,.28,2.88c-.21.78-.86,2.3-1.86,2.19a.36.36,0,0,1-.34-.26C680,505.4,680.52,504.9,680.83,504.35Z" transform="translate(-533.49 -58)" fill="#f7dfa9"/>
    <path d="M696.39,496.76c-.37,1.31-.63,2.64-1,4a6.93,6.93,0,0,0-.49,2.43c-1.08,3.31-2.45,6.52-1.17,10.05a.19.19,0,0,0,.37-.05c0-4.07,2.16-7.8,3-11.76a.09.09,0,0,0,0-.05l0-.15c.19-.8.36-1.6.54-2.41a5.05,5.05,0,0,0,.75-2.83,10.06,10.06,0,0,0-.62-4.21c-.27-.72-1.41-.44-1.17.32a8,8,0,0,1,.28,4.13A.79.79,0,0,0,696.39,496.76Z" transform="translate(-533.49 -58)"/>
    <path d="M692,527.47a68.14,68.14,0,0,0-.4,21.66c0,.21.4.21.43,0,.64-4.06-.42-8.14.37-12.28a98.13,98.13,0,0,1,2.73-12c1.24-3.79,2.86-7.49,3.9-11.35.73-2.74,1.37-5.57.18-8.26-.09-.22-.38-.12-.45.05-1.46,3.64-2,7.6-3.44,11.28A51.3,51.3,0,0,0,692,527.47Z" transform="translate(-533.49 -58)"/>
    <path d="M686.29,517.85c.33-1-1.12-1.32-1.48-.41-2.73,6.85.6,14.28,1.72,21.21.05.27.41.17.44-.06.39-3.42-.67-6.73-.87-10.13S685.19,521.06,686.29,517.85Z" transform="translate(-533.49 -58)"/>
    <path d="M678.07,570.1a12.31,12.31,0,0,0,0-4.28,7.26,7.26,0,0,0-1.13-3.08,34,34,0,0,0-3.6-6.75,28.84,28.84,0,0,1-3.06-7.58,76.83,76.83,0,0,1-2.5-17.07,46.79,46.79,0,0,1,1.81-16.89c1.38-4.52,2.52-8.71,1.86-13.43.29-2.65-1.79-5.52-3-7.67a22,22,0,0,1-2-5.12h-1.84c.23,1.1.5,2.21.83,3.33,1.1,3.75,4.3,6.39,4.52,10.52a.63.63,0,0,0,.17.38c-.69,5.51-3,10.7-4.14,16.11-1.12,5.18-.8,10.43-.33,15.69a64.57,64.57,0,0,0,2.88,15.6,23.11,23.11,0,0,0,1.77,3.77v0c.25.93.51,1.86.79,2.78a2,2,0,0,0,.08.31,1.6,1.6,0,0,1,.1.23l.18.54a.3.3,0,0,0,.1.14c7.5,18,9.78,38,8.62,57.34h.87C682,600.18,681.8,584.61,678.07,570.1Zm-1.21-4.23a7.64,7.64,0,0,0-.13-1,6.88,6.88,0,0,1,.18,1.12Z" transform="translate(-533.49 -58)"/>
    <path d="M703.26,489.88c-.06.63-.12,1.26-.16,1.88-.25-1.18-.45-2.36-.59-3.53h-.91c.19,11.18,5.93,21.48,6.35,32.78a112.4,112.4,0,0,1-1.47,20c-.79,5.6-2.28,11.48-2.14,17.17-1.81,10-2,20-3.11,30.1-.59,5.55-1.25,11.14-1.29,16.74a73.66,73.66,0,0,0,.35,8.78q.08.59.21,1.23h2a85.83,85.83,0,0,1-.65-10c.16-5.61.73-11.17,1.32-16.74,1.11-10.57,1.25-21.26,2.62-31.8,1.59-5.53,2.19-11.46,3-17.12A93,93,0,0,0,710.06,521a71.85,71.85,0,0,0-3.76-18.16c-.47-1.45-1-2.94-1.42-4.45,0-3.4.35-6.79.54-10.17h-2Q703.35,489,703.26,489.88Z" transform="translate(-533.49 -58)"/>
    <g>
      <path d="M592.3,501.48c.13-.47-.61-.81-.81-.34a4.28,4.28,0,0,0-.28,2.88c.21.78.87,2.3,1.86,2.18a.35.35,0,0,0,.34-.25c.11-.66-.4-1.16-.71-1.71A3.81,3.81,0,0,1,592.3,501.48Z" transform="translate(-533.49 -58)"/>
      <path d="M596.75,565.06a8.32,8.32,0,0,0-.13.85s0-.09,0-.14A5.94,5.94,0,0,1,596.75,565.06Z" transform="translate(-533.49 -58)" fill="#f7dfa9"/>
      <path d="M594.71,497.61c-.14.12-.42,0-.33-.19a88.28,88.28,0,0,0,3.6-9.19H577.21a.21.21,0,0,1,.18.08,20.62,20.62,0,0,0,6,4.37,9.05,9.05,0,0,0,4.22,1.29c1.46-.06,2.13-1,3.36-1.49.36-.15.93,0,.88.5-.32,3.11-4.49,3.11-6.72,2.18a20.3,20.3,0,0,1-8.12-6.48.28.28,0,0,1,.19-.45h-5.28c-.23,11.13-5.93,21.4-6.35,32.66a113.46,113.46,0,0,0,1.47,20c.79,5.6,2.29,11.48,2.14,17.16,1.81,10,2,20,3.11,30.1.59,5.56,1.25,11.15,1.3,16.74a75.65,75.65,0,0,1-.36,8.78c0,.43-.13.88-.22,1.35h19.43c-.91-14.86-.72-30.48,3-45a12.09,12.09,0,0,1,0-4.28,7.21,7.21,0,0,1,1.13-3.08,33,33,0,0,1,3.61-6.75,28.84,28.84,0,0,0,3.06-7.58,77.49,77.49,0,0,0,2.49-17.08,46.62,46.62,0,0,0-1.81-16.89c-1.37-4.52-2.52-8.7-1.86-13.42-.29-2.65,1.79-5.52,3-7.67a22.83,22.83,0,0,0,2-5h-7.19A16.65,16.65,0,0,1,594.71,497.61Zm-19-6c.27-.72,1.41-.43,1.17.33a8,8,0,0,0-.28,4.12.81.81,0,0,1,.53.57c.37,1.31.63,2.65,1,4a6.93,6.93,0,0,1,.49,2.43c1.08,3.32,2.45,6.52,1.17,10.06a.19.19,0,0,1-.37-.05c0-4.08-2.16-7.8-3-11.76a.15.15,0,0,1,0-.07l0-.13c-.19-.8-.36-1.61-.54-2.41a5.06,5.06,0,0,1-.75-2.84A10.09,10.09,0,0,1,575.72,491.62Zm6.19,57.4c0,.21-.39.21-.43,0-.64-4.06.42-8.15-.37-12.29a96.56,96.56,0,0,0-2.73-12c-1.24-3.8-2.86-7.49-3.89-11.35-.74-2.75-1.38-5.57-.19-8.27.1-.22.38-.11.45.06,1.46,3.64,2,7.6,3.45,11.27a52.48,52.48,0,0,1,3.32,10.89A68.5,68.5,0,0,1,581.91,549ZM587,538.54c0,.27-.41.17-.44-.06-.39-3.42.68-6.74.87-10.13s.91-7.41-.19-10.62c-.33-1,1.13-1.31,1.49-.41C591.45,524.18,588.12,531.61,587,538.54ZM593.41,506a.35.35,0,0,1-.34.25c-1,.12-1.65-1.4-1.86-2.18a4.28,4.28,0,0,1,.28-2.88c.2-.47.94-.13.81.34a3.81,3.81,0,0,0,.4,2.76C593,504.79,593.52,505.29,593.41,506Z" transform="translate(-533.49 -58)" fill="#f7dfa9"/>
      <path d="M575.85,498.67c.18.8.35,1.61.54,2.41l0,.13a.15.15,0,0,0,0,.07c.82,4,2.93,7.68,3,11.76a.19.19,0,0,0,.37.05c1.28-3.54-.09-6.74-1.17-10.06a6.93,6.93,0,0,0-.49-2.43c-.35-1.31-.61-2.65-1-4a.81.81,0,0,0-.53-.57,8,8,0,0,1,.28-4.12c.24-.76-.9-1.05-1.17-.33a10.09,10.09,0,0,0-.62,4.21A5.06,5.06,0,0,0,575.85,498.67Z" transform="translate(-533.49 -58)"/>
      <path d="M578.2,516.46c-1.47-3.67-2-7.63-3.45-11.27-.07-.17-.35-.28-.45-.06-1.19,2.7-.55,5.52.19,8.27,1,3.86,2.65,7.55,3.89,11.35a96.56,96.56,0,0,1,2.73,12c.79,4.14-.27,8.23.37,12.29,0,.21.4.21.43,0a68.5,68.5,0,0,0-.39-21.67A52.48,52.48,0,0,0,578.2,516.46Z" transform="translate(-533.49 -58)"/>
      <path d="M587.24,517.73c1.1,3.21.38,7.28.19,10.62s-1.26,6.71-.87,10.13c0,.23.4.33.44.06,1.12-6.93,4.45-14.36,1.73-21.22C588.37,516.42,586.91,516.78,587.24,517.73Z" transform="translate(-533.49 -58)"/>
      <path d="M573.24,613.66a75.65,75.65,0,0,0,.36-8.78c-.05-5.59-.71-11.18-1.3-16.74-1.06-10.09-1.3-20.13-3.11-30.1.15-5.68-1.35-11.56-2.14-17.16a113.46,113.46,0,0,1-1.47-20c.42-11.26,6.12-21.53,6.35-32.66H571c-.14,1.14-.34,2.28-.58,3.41,0-.61-.1-1.24-.16-1.88s-.1-1-.14-1.53h-2c.19,3.34.51,6.7.54,10.06-.47,1.51-1,3-1.42,4.45a71.36,71.36,0,0,0-3.77,18.15,93.14,93.14,0,0,0,1.28,18.34c.82,5.65,1.42,11.58,3,17.12,1.37,10.54,1.5,21.23,2.62,31.79.58,5.57,1.15,11.14,1.31,16.74a84.26,84.26,0,0,1-.65,10.06l0,.07h2C573.11,614.54,573.19,614.09,573.24,613.66Z" transform="translate(-533.49 -58)"/>
      <path d="M601.93,557.55a.27.27,0,0,0,.1-.13c.07-.19.12-.37.18-.55a2.29,2.29,0,0,0,.1-.23,1.11,1.11,0,0,0,.08-.3c.29-.92.54-1.85.79-2.79v0a22.4,22.4,0,0,0,1.77-3.78,64,64,0,0,0,2.88-15.6c.47-5.25.79-10.5-.33-15.69-1.17-5.41-3.45-10.6-4.13-16.11a.57.57,0,0,0,.16-.38c.23-4.13,3.42-6.76,4.52-10.52q.48-1.62.81-3.21H607a22.83,22.83,0,0,1-2,5c-1.19,2.15-3.27,5-3,7.67-.66,4.72.49,8.9,1.86,13.42a46.62,46.62,0,0,1,1.81,16.89,77.49,77.49,0,0,1-2.49,17.08,28.84,28.84,0,0,1-3.06,7.58,33,33,0,0,0-3.61,6.75,7.21,7.21,0,0,0-1.13,3.08,12.09,12.09,0,0,0,0,4.28c-3.74,14.54-3.93,30.16-3,45h.86C592.14,595.64,594.42,575.55,601.93,557.55Zm-5.18,7.51a5.94,5.94,0,0,0-.08.71c0,.05,0,.1,0,.14A8.32,8.32,0,0,1,596.75,565.06Z" transform="translate(-533.49 -58)"/>
    </g>
  </g>
  <g id="thighs">
    <path id="thighs-2" data-name="thighs" d="M609.46,478.06a.52.52,0,0,0,.53-.19c4.51-5.48,6.17-11.66,6.78-18.66.31-3.65.24-7.35.19-11,0-1.75,0-3.54,0-5.32l0,0c1.21-2.58,1.89-5.33,3.07-7.93,1.27-2.79,2.32-5.67,3.31-8.57a181.94,181.94,0,0,0,5.08-19.23c1.34-6,2.75-11.93,3.19-18.08.23-3.21.11-6.4.49-9.6,0-.31.07-.62.11-.93l-1.5-2.46c-.11.69-.23,1.38-.35,2.07a63.9,63.9,0,0,0-.62,8.85c-.21,6.69-1.79,13.12-3.25,19.62s-2.9,12.95-4.88,19.28c-1.47,4.69-4.16,9.11-5,13.94a17.55,17.55,0,0,0-.51-2.37.67.67,0,0,0-.2-.31,69.18,69.18,0,0,0-.42-10.73c-.63-5.3-1.61-10.55-2.67-15.77-2.3-11.31-5.71-22.48-7.48-33.87-.06-.39-.74-.29-.69.1.69,5.18,1.24,10.41,2.19,15.54,1,5.55,2.35,11.05,3.51,16.57,1.2,5.77,2.26,11.57,3,17.43.33,2.65.35,5.37.78,8a42.36,42.36,0,0,1,.21,4.78,31,31,0,0,0-.34,7.21c.08,3.36.16,6.72.09,10.09-.14,6.85-1.07,14.26-4.85,20.16-.27-.67-1.39-.64-1.32.19a34.68,34.68,0,0,1-.93,11.41h1.85A33.59,33.59,0,0,0,609.46,478.06Z" transform="translate(-533.49 -58)"/>
    <path d="M570.27,489.76c.06.64.12,1.27.16,1.88.24-1.13.44-2.27.58-3.41h-.88C570.17,488.73,570.22,489.24,570.27,489.76Z" transform="translate(-533.49 -58)" fill="#f7dfa9"/>
    <path d="M665.59,476.93c.06-.83-1.06-.85-1.33-.19-3.78-5.89-4.71-13.31-4.85-20.16-.07-3.36,0-6.72.09-10.08a30.46,30.46,0,0,0-.34-7.21,42.37,42.37,0,0,1,.22-4.78c.42-2.64.44-5.36.77-8,.73-5.85,1.79-11.65,3-17.43,1.15-5.52,2.47-11,3.5-16.56,1-5.14,1.5-10.37,2.19-15.55,0-.39-.63-.48-.69-.09-1.77,11.39-5.18,22.55-7.48,33.86-1.06,5.23-2,10.48-2.67,15.77a70.52,70.52,0,0,0-.42,10.74.64.64,0,0,0-.2.31,17.09,17.09,0,0,0-.51,2.36c-.79-4.83-3.48-9.24-5-13.94-2-6.33-3.43-12.81-4.88-19.28s-3-12.92-3.25-19.62a63.75,63.75,0,0,0-.62-8.84c0-.17-.06-.34-.08-.51l-1.58,2.59c.28,2.94.2,5.88.41,8.83.45,6.16,1.85,12.08,3.19,18.08a181.94,181.94,0,0,0,5.08,19.23c1,2.9,2,5.78,3.31,8.58,1.19,2.6,1.86,5.35,3.07,7.92l0,.05c-.07,1.78,0,3.57,0,5.31a109.22,109.22,0,0,0,.2,11c.6,7,2.26,13.18,6.77,18.67a.55.55,0,0,0,.53.19,33.79,33.79,0,0,0,.57,10.05h1.84A34.81,34.81,0,0,1,665.59,476.93Z" transform="translate(-533.49 -58)"/>
    <path d="M703.07,396.17c1.14,11.71.32,23.67-.78,35.36-.5,5.36-.92,10.73-1.47,16.09-.47,4.68-.71,9.69-1.9,14.24a.41.41,0,0,0,.79.22,46,46,0,0,0,1.81-5.38c.44,6.87.67,13.81,1.66,20.61a46.5,46.5,0,0,1,.23,10.92h2a46.45,46.45,0,0,0-.33-10.27c-1.32-7.89-2-15.83-3-23.76,1.65-7.39,1.92-15.13,2.61-22.67,1.07-11.69,2-23.65.77-35.36-1.65-16.47-4-32.92-7-49.25H696.2C698.88,363.28,701.46,379.65,703.07,396.17Z" transform="translate(-533.49 -58)"/>
    <path d="M570.35,477.2c1-6.81,1.22-13.74,1.66-20.62a47.22,47.22,0,0,0,1.81,5.38.41.41,0,0,0,.79-.21c-1.19-4.56-1.43-9.56-1.9-14.25-.55-5.35-1-10.73-1.47-16.09-1.1-11.68-1.92-23.64-.78-35.36,1.61-16.48,4.18-32.81,6.85-49.13H575c-2.94,16.29-5.31,32.7-7,49.13-1.18,11.72-.29,23.68.78,35.36.69,7.55,1,15.29,2.61,22.67-1,7.94-1.64,15.88-3,23.77a46.82,46.82,0,0,0-.32,10.38h2A47.42,47.42,0,0,1,570.35,477.2Z" transform="translate(-533.49 -58)"/>
    <path d="M643.09,377.72c0,.17,0,.34.08.51a63.75,63.75,0,0,1,.62,8.84c.21,6.7,1.79,13.12,3.25,19.62s2.9,12.95,4.88,19.28c1.47,4.7,4.16,9.11,5,13.94a17.09,17.09,0,0,1,.51-2.36.64.64,0,0,1,.2-.31A70.52,70.52,0,0,1,658,426.5c.64-5.29,1.61-10.54,2.67-15.77,2.3-11.31,5.71-22.47,7.48-33.86.06-.39.74-.3.69.09-.69,5.18-1.23,10.41-2.19,15.55-1,5.55-2.35,11-3.5,16.56-1.21,5.78-2.27,11.58-3,17.43-.33,2.65-.35,5.37-.77,8a42.37,42.37,0,0,0-.22,4.78,30.46,30.46,0,0,1,.34,7.21c-.08,3.36-.16,6.72-.09,10.08.14,6.85,1.07,14.27,4.85,20.16.27-.66,1.39-.64,1.33.19a34.81,34.81,0,0,0,.89,11.3h7.19a27.09,27.09,0,0,1-.49-6.5.68.68,0,0,1-.32-.41c-.66-1.83,1.53-3.2,2.82-4.05,2.45-1.61,6.29-3.62,7.81-6.17,4.09-6.89,7.54-14.37,7-22.6,0-.5.8-.61.88-.12,1.1,6.68-.79,14.29-3.66,20.29a14.31,14.31,0,0,1-5.63,6.22c-1.74,1.07-8.32,3.25-7.79,6a.64.64,0,0,1,.28.55,23.5,23.5,0,0,0,.95,6.81H701.6a31.86,31.86,0,0,1,.13-3.51.28.28,0,0,1,.56,0,29.8,29.8,0,0,0,.22,3.51h.9a46.5,46.5,0,0,0-.23-10.92c-1-6.8-1.22-13.74-1.66-20.61a46,46,0,0,1-1.81,5.38.41.41,0,0,1-.79-.22c1.19-4.55,1.43-9.56,1.9-14.24.55-5.36,1-10.73,1.47-16.09,1.1-11.69,1.92-23.65.78-35.36-1.61-16.52-4.19-32.89-6.87-49.25H661.87Zm49.06,84.46a6.84,6.84,0,0,0,1.29,3.1c.64.61,1.25,1.33,1.87,2a1.07,1.07,0,0,1-1.51,1.51,5.62,5.62,0,0,1-1.5-2.83c-.3-1.17-.52-2.4-.78-3.58A.33.33,0,0,1,692.15,462.18Z" transform="translate(-533.49 -58)" fill="#f7dfa9"/>
    <path d="M608,476.82c-.07-.83,1-.86,1.32-.19,3.78-5.9,4.71-13.31,4.85-20.16.07-3.37,0-6.73-.09-10.09a31,31,0,0,1,.34-7.21,42.36,42.36,0,0,0-.21-4.78c-.43-2.63-.45-5.35-.78-8-.73-5.86-1.79-11.66-3-17.43-1.16-5.52-2.48-11-3.51-16.57-1-5.13-1.5-10.36-2.19-15.54-.05-.39.63-.49.69-.1,1.77,11.39,5.18,22.56,7.48,33.87,1.06,5.22,2,10.47,2.67,15.77a69.18,69.18,0,0,1,.42,10.73.67.67,0,0,1,.2.31,17.55,17.55,0,0,1,.51,2.37c.79-4.83,3.48-9.25,5-13.94,2-6.33,3.43-12.81,4.88-19.28s3-12.93,3.25-19.62a63.9,63.9,0,0,1,.62-8.85c.12-.69.24-1.38.35-2.07l-4.89-8a7.19,7.19,0,0,1-1.27-1.31,17.86,17.86,0,0,1-2.49-4.85L613,346.92H577.31c-2.67,16.32-5.24,32.65-6.85,49.13-1.14,11.72-.32,23.68.78,35.36.51,5.36.92,10.74,1.47,16.09.47,4.69.71,9.69,1.9,14.25a.41.41,0,0,1-.79.21,47.22,47.22,0,0,1-1.81-5.38c-.44,6.88-.66,13.81-1.66,20.62a47.42,47.42,0,0,0-.22,11H571a29.49,29.49,0,0,0,.23-3.63c0-.37.53-.35.56,0a31.62,31.62,0,0,1,.13,3.63H598a23.9,23.9,0,0,0,1-6.92.61.61,0,0,1,.27-.55c.53-2.73-6-4.91-7.78-6a14.25,14.25,0,0,1-5.63-6.22c-2.88-6-4.76-13.61-3.66-20.29.08-.5.9-.38.87.11-.53,8.24,2.92,15.71,7,22.6,1.52,2.56,5.37,4.56,7.82,6.18,1.29.84,3.47,2.22,2.82,4a.85.85,0,0,1-.32.41,27,27,0,0,1-.53,6.61H607A34.68,34.68,0,0,0,608,476.82ZM582,462.24c-.26,1.18-.47,2.42-.78,3.58a5.54,5.54,0,0,1-1.5,2.83,1.06,1.06,0,0,1-1.51-1.5c.63-.65,1.23-1.37,1.88-2a6.64,6.64,0,0,0,1.28-3.09A.33.33,0,0,1,582,462.24Z" transform="translate(-533.49 -58)" fill="#f7dfa9"/>
    <path d="M691.52,462.36c.26,1.18.48,2.41.78,3.58a5.62,5.62,0,0,0,1.5,2.83,1.07,1.07,0,0,0,1.51-1.51c-.62-.65-1.23-1.37-1.87-2a6.84,6.84,0,0,1-1.29-3.1A.33.33,0,0,0,691.52,462.36Z" transform="translate(-533.49 -58)"/>
    <path d="M674.57,481.42a.64.64,0,0,0-.28-.55c-.53-2.73,6.05-4.91,7.79-6a14.31,14.31,0,0,0,5.63-6.22c2.87-6,4.76-13.61,3.66-20.29-.08-.49-.91-.38-.88.12.54,8.23-2.91,15.71-7,22.6-1.52,2.55-5.36,4.56-7.81,6.17-1.29.85-3.48,2.22-2.82,4.05a.68.68,0,0,0,.32.41,27.09,27.09,0,0,0,.49,6.5h1.85A23.5,23.5,0,0,1,674.57,481.42Z" transform="translate(-533.49 -58)"/>
    <path d="M581.38,462.07a6.64,6.64,0,0,1-1.28,3.09c-.65.62-1.25,1.34-1.88,2a1.06,1.06,0,0,0,1.51,1.5,5.54,5.54,0,0,0,1.5-2.83c.31-1.16.52-2.4.78-3.58A.33.33,0,0,0,581.38,462.07Z" transform="translate(-533.49 -58)"/>
    <path d="M599.05,480.91a.71.71,0,0,0,.3-.37c.6-1.69-1.41-3-2.6-3.74-2.26-1.48-5.8-3.33-7.2-5.69-3.76-6.34-6.94-13.23-6.45-20.82,0-.45-.73-.56-.81-.1-1,6.15.73,13.16,3.37,18.69a13.15,13.15,0,0,0,5.19,5.73c1.6,1,7.66,3,7.17,5.51a.58.58,0,0,0-.25.51,21.93,21.93,0,0,1-.91,6.37h1.71A24.71,24.71,0,0,0,599.05,480.91Z" transform="translate(-533.49 -58)"/>
  </g>
  <g id="pelvic">
    <path d="M636.5,316.67a5.87,5.87,0,0,0,.69,1l.11-.06,0-.68A1.85,1.85,0,0,1,636.5,316.67Z" transform="translate(-533.49 -58)" fill="#f7dfa9"/>
    <path d="M696.2,346.92c-1.24-7.58-2.49-15.16-3.68-22.75a.78.78,0,0,1-.38-.54,46.93,46.93,0,0,0-2-8.09,19.71,19.71,0,0,1-1.39-6.51c0-1.87.41-4.43.41-6.84l-27.27,44.73Z" transform="translate(-533.49 -58)" fill="#f7dfa9"/>
    <path d="M667.37,296.91a80.5,80.5,0,0,1-2.81,10c-1.09,3.44-1,7.09-1.87,10.55a.2.2,0,0,1-.38,0c-.46-2.63.13-5.41.59-8,.56-3.15,1-6.32,1.56-9.47.42-2.18.86-4.35,1.16-6.54h-57.7c.31,2.15.74,4.28,1.15,6.43.6,3.14,1,6.31,1.56,9.46.46,2.61,1,5.38.59,8a.2.2,0,0,1-.38,0c-.86-3.46-.78-7.11-1.86-10.55a78.38,78.38,0,0,1-2.82-10c-.19-1.1-.35-2.23-.47-3.36h-18c.16.58.34,1.16.56,1.75a.81.81,0,0,1,0,.48c2.62,3,6.24,4.94,8.8,8a.24.24,0,0,1-.29.38,27.88,27.88,0,0,1-9.35-7.69.94.94,0,0,1-.82-.29,5.7,5.7,0,0,0-2.18,4.2L613,346.92h5a52.63,52.63,0,0,0-5.89-8.14c-2.45-3-4.5-5.86-4.69-9.82a.36.36,0,0,1,.71-.1c1.43,7.23,9.21,11.43,12,18.06h33.34c2.86-6.56,10.56-10.76,12-17.95a.36.36,0,0,1,.71.1c-.2,4-2.24,6.8-4.69,9.83a53.18,53.18,0,0,0-5.84,8h6.24l27.27-44.73c0-2.44-.43-4.73-2.27-6a1,1,0,0,1-.83.3,28,28,0,0,1-9.35,7.69.25.25,0,0,1-.29-.39c2.56-3,6.18-5,8.8-8a.84.84,0,0,1,0-.49c.22-.63.42-1.25.59-1.86h-18C667.74,294.6,667.57,295.76,667.37,296.91Zm-60,22.5c-.77-1.77-2.28-3.29-3.29-5s-1.85-3.67-3.38-4.69c-.27-.17-.1-.65.22-.53a9.19,9.19,0,0,1,4.64,3.64,10.83,10.83,0,0,1,1.94,6.52C607.51,319.44,607.41,319.48,607.38,319.41Zm31-1.43a.54.54,0,0,1-.28.47l-.8.39a.57.57,0,0,1-.66-.08,9.93,9.93,0,0,1-2-4.65.45.45,0,0,1,.87-.24c.13.46.26.92.4,1.37,0-.17.07-.34.1-.53a.28.28,0,0,1,.41-.16,1.5,1.5,0,0,1,.63.64c.21.48.22.52.82.57a.62.62,0,0,1,.62.62C638.46,316.91,638.42,317.45,638.42,318Zm34.18-8.65c.33-.12.49.36.23.54-1.54,1-2.43,3.1-3.39,4.68s-2.52,3.2-3.28,5c0,.06-.14,0-.14,0A10.92,10.92,0,0,1,668,313,9.29,9.29,0,0,1,672.6,309.33Z" transform="translate(-533.49 -58)" fill="#f7dfa9"/>
    <path d="M584.49,300.24c-.36,2.88.36,6.32.32,8.68a19.71,19.71,0,0,1-1.4,6.5,47.4,47.4,0,0,0-2,8.09.76.76,0,0,1-.38.54c-1.19,7.63-2.45,15.25-3.7,22.87H613Z" transform="translate(-533.49 -58)" fill="#f7dfa9"/>
    <path d="M600.93,309.22c-.32-.12-.49.36-.22.53,1.53,1,2.42,3.1,3.38,4.69s2.52,3.2,3.29,5c0,.07.13,0,.13,0a10.83,10.83,0,0,0-1.94-6.52A9.19,9.19,0,0,0,600.93,309.22Z" transform="translate(-533.49 -58)"/>
    <path d="M609,306.78c1.08,3.44,1,7.09,1.86,10.55a.2.2,0,0,0,.38,0c.46-2.63-.13-5.4-.59-8-.55-3.15-1-6.32-1.56-9.46-.41-2.15-.84-4.28-1.15-6.43h-2.23c.12,1.13.28,2.26.47,3.36A78.38,78.38,0,0,0,609,306.78Z" transform="translate(-533.49 -58)"/>
    <path d="M666,319.49c0,.07.11.1.14,0,.76-1.78,2.27-3.3,3.28-5s1.85-3.66,3.39-4.68c.26-.18.1-.66-.23-.54A9.29,9.29,0,0,0,668,313,10.92,10.92,0,0,0,666,319.49Z" transform="translate(-533.49 -58)"/>
    <path d="M662.9,309.44c-.46,2.6-1,5.38-.59,8a.2.2,0,0,0,.38,0c.87-3.46.78-7.11,1.87-10.55a80.5,80.5,0,0,0,2.81-10c.2-1.15.37-2.31.48-3.48h-2.23c-.3,2.19-.74,4.36-1.16,6.54C663.86,303.12,663.46,306.29,662.9,309.44Z" transform="translate(-533.49 -58)"/>
    <path d="M586.67,296a.94.94,0,0,0,.82.29,27.88,27.88,0,0,0,9.35,7.69.24.24,0,0,0,.29-.38c-2.56-3-6.18-5-8.8-8a.81.81,0,0,0,0-.48c-.22-.59-.4-1.17-.56-1.75h-2.42c0,.13.09.25.14.38a7,7,0,0,0-2.74,3.53l1.77,2.9A5.7,5.7,0,0,1,586.67,296Z" transform="translate(-533.49 -58)"/>
    <path d="M581,324.05a.76.76,0,0,0,.38-.54,47.4,47.4,0,0,1,2-8.09,19.71,19.71,0,0,0,1.4-6.5c0-2.36-.68-5.8-.32-8.68l-1.77-2.9c-1,2.69-.72,6-.51,8.82a20.64,20.64,0,0,1-1.06,8.64c-.93,2.75-2.18,5.71-1.55,8.64q-2.51,11.69-4.63,23.48h2.34C578.56,339.3,579.82,331.68,581,324.05Z" transform="translate(-533.49 -58)"/>
    <path d="M688.73,309a19.71,19.71,0,0,0,1.39,6.51,46.93,46.93,0,0,1,2,8.09.78.78,0,0,0,.38.54c1.19,7.59,2.44,15.17,3.68,22.75h2.35q-2.12-11.73-4.61-23.36c.63-2.94-.63-5.9-1.56-8.64a20.68,20.68,0,0,1-1.06-8.64,27.1,27.1,0,0,0-.11-7.47l-2.07,3.38C689.14,304.6,688.69,307.16,688.73,309Z" transform="translate(-533.49 -58)"/>
    <path d="M685.24,295.29a.84.84,0,0,0,0,.49c-2.62,3-6.24,4.94-8.8,8a.25.25,0,0,0,.29.39,28,28,0,0,0,9.35-7.69,1,1,0,0,0,.83-.3c1.84,1.31,2.28,3.6,2.27,6l2.07-3.38a7.54,7.54,0,0,0-3.14-4.89c.07-.16.13-.33.19-.49h-2.43C685.66,294,685.46,294.66,685.24,295.29Z" transform="translate(-533.49 -58)"/>
    <path d="M608.09,328.86a.36.36,0,0,0-.71.1c.19,4,2.24,6.8,4.69,9.82a52.63,52.63,0,0,1,5.89,8.14h2.16C617.3,340.29,609.52,336.09,608.09,328.86Z" transform="translate(-533.49 -58)"/>
    <path d="M661.47,338.9c2.45-3,4.49-5.87,4.69-9.83a.36.36,0,0,0-.71-.1c-1.43,7.19-9.13,11.39-12,17.95h2.17A53.18,53.18,0,0,1,661.47,338.9Z" transform="translate(-533.49 -58)"/>
    <path d="M637.86,315.76c-.6-.05-.61-.09-.82-.57a1.5,1.5,0,0,0-.63-.64.28.28,0,0,0-.41.16c0,.19-.07.36-.1.53-.14-.45-.27-.91-.4-1.37a.45.45,0,0,0-.87.24,9.93,9.93,0,0,0,2,4.65.57.57,0,0,0,.66.08l.8-.39a.54.54,0,0,0,.28-.47c0-.53,0-1.07.06-1.6A.62.62,0,0,0,637.86,315.76Zm-.67,1.95a5.87,5.87,0,0,1-.69-1,1.85,1.85,0,0,0,.77.3l0,.68Z" transform="translate(-533.49 -58)"/>
  </g>
  <g id="stomach">
    <path d="M685.29,279.91c-1-4.29-2-8.32-1.41-12.7,0-4.18,1.15-8.52,1.79-12.57.92-5.86,2.15-11.63,3.33-17.44,1.16-5.64,2.13-11.48,1.81-17.25,0-.74-.11-1.47-.2-2.21h-11.1a15.49,15.49,0,0,1-7.45,1.12,41.49,41.49,0,0,1-7.15-1.12H607.43a41.94,41.94,0,0,1-6.68,1,15.73,15.73,0,0,1-7.16-1H582.2c-.09.7-.16,1.4-.19,2.1-.32,5.77.65,11.61,1.8,17.25,1.19,5.8,2.41,11.58,3.34,17.44.64,4,1.76,8.39,1.79,12.57.55,4.37-.39,8.4-1.41,12.69-1.17,4.92-1.47,9-.15,13.64h18c-.49-4.9-.05-9.94,2.34-14.27h0a20.86,20.86,0,0,1-2.41-9.44c0-3.66,1-7.23.82-10.9-.44-.21-.85-.48-1.22-.69a16.5,16.5,0,0,1-2.4-1.57,4,4,0,0,1-1.48-4.11c.18-.79,1.5-.63,1.43.19-.28,3.14,5,2.93,5.93,5.3.24.59-.31,1.06-.82,1.16.34,3.57-.6,7.06-.32,10.62.21,2.62,1.93,5.8,1.39,8.45a.51.51,0,0,1,.49.65c-1.05,3.66-2.09,7.42-1.87,11.26.06,1.13.19,2.25.35,3.36h57.7c.15-1.07.27-2.15.33-3.24.22-3.85-.82-7.61-1.87-11.27a.51.51,0,0,1,.49-.65c-.54-2.65,1.18-5.82,1.39-8.44.28-3.56-.66-7.06-.33-10.62-.5-.11-1-.57-.81-1.16,1-2.37,6.21-2.16,5.93-5.31-.07-.82,1.25-1,1.42-.19a4,4,0,0,1-1.47,4.11,15.72,15.72,0,0,1-2.4,1.57c-.37.21-.78.48-1.22.69-.18,3.67.86,7.24.82,10.91a20.79,20.79,0,0,1-2.41,9.43h0c2.38,4.3,2.83,9.3,2.36,14.16h18C686.75,288.85,686.45,284.78,685.29,279.91Zm-85.5-34.28c-2.42-1.45-5-2.39-7.31-4.12a12,12,0,0,1-2.59-2.53c-.92-1.28-1-2.45-1.34-3.94a.28.28,0,0,1,.54-.15c.86,2.71,3.78,4.86,6.06,6.29a17.78,17.78,0,0,1,4.9,4.12C600.19,245.47,600,245.76,599.79,245.63Zm37.29,28.45c0,.4-.63.53-.73.1-.89-3.8-1-7.84-1.27-11.71q-.5-6.09-.94-12.18a94.88,94.88,0,0,1-.13-11.56,57.48,57.48,0,0,0-.31-12.09c0-.27.37-.39.43-.11a55.55,55.55,0,0,1,.54,11.6,92.2,92.2,0,0,0,.52,11.51c.38,4.06.77,8.12,1.13,12.19S637.33,270,637.08,274.08Zm43.26-32.45c-2.29,1.72-4.89,2.66-7.31,4.11-.22.13-.4-.15-.26-.33a18.14,18.14,0,0,1,4.9-4.12c2.28-1.42,5.2-3.58,6.06-6.28a.28.28,0,0,1,.54.15c-.37,1.49-.42,2.66-1.34,3.93A12.47,12.47,0,0,1,680.34,241.63Z" transform="translate(-533.49 -58)" fill="#f7dfa9"/>
    <path d="M609.09,278.81a.51.51,0,0,0-.49-.65c.54-2.65-1.18-5.83-1.39-8.45-.28-3.56.66-7,.32-10.62.51-.1,1.06-.57.82-1.16-1-2.37-6.21-2.16-5.93-5.3.07-.82-1.25-1-1.43-.19a4,4,0,0,0,1.48,4.11,16.5,16.5,0,0,0,2.4,1.57c.37.21.78.48,1.22.69.18,3.67-.86,7.24-.82,10.9a20.86,20.86,0,0,0,2.41,9.44h0c-2.39,4.33-2.83,9.37-2.34,14.27h2.23c-.16-1.11-.29-2.23-.35-3.36C607,286.23,608,282.47,609.09,278.81Z" transform="translate(-533.49 -58)"/>
    <path d="M595.15,241.18c-2.28-1.43-5.2-3.58-6.06-6.29a.28.28,0,0,0-.54.15c.37,1.49.42,2.66,1.34,3.94a12,12,0,0,0,2.59,2.53c2.28,1.73,4.89,2.67,7.31,4.12.22.13.4-.16.26-.33A17.78,17.78,0,0,0,595.15,241.18Z" transform="translate(-533.49 -58)"/>
    <path d="M665.13,279.27h0a20.79,20.79,0,0,0,2.41-9.43c0-3.67-1-7.24-.82-10.91.44-.21.85-.48,1.22-.69a15.72,15.72,0,0,0,2.4-1.57,4,4,0,0,0,1.47-4.11c-.17-.79-1.49-.63-1.42.19.28,3.15-4.95,2.94-5.93,5.31-.24.59.31,1.05.81,1.16-.33,3.56.61,7.06.33,10.62-.21,2.62-1.93,5.79-1.39,8.44a.51.51,0,0,0-.49.65c1,3.66,2.09,7.42,1.87,11.27-.06,1.09-.18,2.17-.33,3.24h2.22C668,288.57,667.51,283.57,665.13,279.27Z" transform="translate(-533.49 -58)"/>
    <path d="M683.73,235c-.86,2.7-3.78,4.86-6.06,6.28a18.14,18.14,0,0,0-4.9,4.12c-.14.18,0,.46.26.33,2.42-1.45,5-2.39,7.31-4.11a12.47,12.47,0,0,0,2.59-2.54c.92-1.27,1-2.44,1.34-3.93A.28.28,0,0,0,683.73,235Z" transform="translate(-533.49 -58)"/>
    <path d="M587.53,279.79c1-4.29,2-8.32,1.41-12.69,0-4.18-1.15-8.53-1.79-12.57-.93-5.86-2.15-11.64-3.34-17.44-1.15-5.64-2.12-11.48-1.8-17.25,0-.7.1-1.4.19-2.1h-1.64v15.19c.09.51.18,1,.28,1.53s.15.77.22,1.15a.91.91,0,0,0-.22.34l-.28.76V242c.37-.9.73-1.81,1.06-2.69.06-.1.11-.21.16-.31,2,9,4.58,17.84,6,27a.46.46,0,0,0-.14.4c.68,9-6,18.33-2.66,27h2.42C586.06,288.8,586.36,284.71,587.53,279.79Z" transform="translate(-533.49 -58)"/>
    <path d="M690.61,217.74c.09.74.16,1.47.2,2.21.32,5.77-.65,11.61-1.81,17.25-1.18,5.81-2.41,11.58-3.33,17.44-.64,4.05-1.76,8.39-1.79,12.57-.55,4.38.38,8.41,1.41,12.7,1.16,4.87,1.46,8.94.18,13.52h2.43c3.27-8.67-3.38-18-2.7-26.92a.44.44,0,0,0-.14-.39c1.4-9.15,4-18,6-27,.05.1.1.21.16.31s.08.23.13.34v-22Z" transform="translate(-533.49 -58)"/>
    <path d="M635.19,249.64a92.2,92.2,0,0,1-.52-11.51,55.55,55.55,0,0,0-.54-11.6c-.06-.28-.47-.16-.43.11a57.48,57.48,0,0,1,.31,12.09,94.88,94.88,0,0,0,.13,11.56q.45,6.09.94,12.18c.32,3.87.38,7.91,1.27,11.71.1.43.71.3.73-.1.25-4.05-.41-8.22-.76-12.25S635.57,253.7,635.19,249.64Z" transform="translate(-533.49 -58)"/>
  </g>
  <g id="chest">
    <path d="M579.63,186.48a.27.27,0,0,0,.53.07c.23-.68.48-1.33.75-2v-2.75A7.44,7.44,0,0,0,579.63,186.48Z" transform="translate(-533.49 -58)"/>
    <path d="M693.37,186.66a.27.27,0,0,0,.53-.07c.27-2.08-.87-4.2-2.22-6v2.2A25.73,25.73,0,0,1,693.37,186.66Z" transform="translate(-533.49 -58)"/>
    <path d="M580,197.92q.43,1.53,1,3.06v-1.1a16.36,16.36,0,0,1-.52-2.2A.26.26,0,0,0,580,197.92Z" transform="translate(-533.49 -58)"/>
    <path d="M693.14,197.8a15.8,15.8,0,0,1-1.46,4.53v1.21a47.09,47.09,0,0,0,1.9-5.5A.26.26,0,0,0,693.14,197.8Z" transform="translate(-533.49 -58)"/>
    <g>
      <path d="M586.11,176.76c2.39-2.64,5-5.08,7-8,.33-.47-.44-.9-.77-.44-2.56,3.45-5.82,6.4-8.58,9.69a30.91,30.91,0,0,0-2.9,3.85v2.75A27.41,27.41,0,0,1,586.11,176.76Z" transform="translate(-533.49 -58)"/>
      <path d="M618.57,155.77c-2.39-.27-4.74.34-7.07-.44-.68-.23-1.16.88-.5,1.17a12.87,12.87,0,0,0,4.94,1,19.38,19.38,0,0,1,3,.34c1.18.26,1.25.62,2.37.38a.5.5,0,0,0,.35-.62C621.21,156.22,620,155.94,618.57,155.77Z" transform="translate(-533.49 -58)"/>
      <path d="M631.58,155.64a1,1,0,0,0,1.4-1.08,6.59,6.59,0,0,0-.66-1.33h-2.49A4.66,4.66,0,0,0,631.58,155.64Z" transform="translate(-533.49 -58)"/>
      <path d="M681.15,168.41c-.34-.45-1.1,0-.77.45,2,2.94,4.65,5.38,7,8a29.3,29.3,0,0,1,4.25,5.88v-2.2c-.65-.89-1.35-1.72-2-2.44C687,174.81,683.7,171.87,681.15,168.41Z" transform="translate(-533.49 -58)"/>
      <path d="M662,155.44c-2.33.79-4.68.18-7.07.45-1.43.16-2.63.45-3.12,1.84a.5.5,0,0,0,.35.61c1.12.25,1.19-.12,2.37-.37a17.25,17.25,0,0,1,3-.34,13.06,13.06,0,0,0,4.94-1C663.19,156.32,662.72,155.21,662,155.44Z" transform="translate(-533.49 -58)"/>
      <path d="M640.55,154.68a1,1,0,0,0,1.4,1.07,4.79,4.79,0,0,0,1.8-2.52h-2.46A6.21,6.21,0,0,0,640.55,154.68Z" transform="translate(-533.49 -58)"/>
      <path d="M686,154.59a.63.63,0,0,0,.51-.08l.45.18c-4.52.48-9,.9-13.52-.33a.52.52,0,0,0-.28,1c6.18,1.83,12.12,1,18.42.57h.12v-1.7l-.89.07c-1.37-.36-2.77-.48-4.15-.75a.65.65,0,0,0-.32-.2l-.32-.12h-2.79A6.85,6.85,0,0,0,686,154.59Z" transform="translate(-533.49 -58)"/>
      <path d="M582,155.83c6.3.38,12.24,1.25,18.42-.57a.53.53,0,0,0-.28-1c-4.49,1.23-9,.81-13.51.33l.45-.18a.6.6,0,0,0,.5.08,6.78,6.78,0,0,0,2.62-1.24h-3a.75.75,0,0,0-.32.21c-1.37.27-2.77.38-4.15.75-.61-.06-1.22-.1-1.83-.13v1.72C581.26,155.79,581.61,155.8,582,155.83Z" transform="translate(-533.49 -58)"/>
      <path d="M611,156.5a12.87,12.87,0,0,0,4.94,1,19.38,19.38,0,0,1,3,.34c1.18.26,1.25.62,2.37.38a.5.5,0,0,0,.35-.62c-.48-1.39-1.69-1.67-3.12-1.84-2.39-.27-4.74.34-7.07-.44C610.82,155.1,610.34,156.21,611,156.5Z" transform="translate(-533.49 -58)" fill="none"/>
      <path d="M652.19,158.34c1.12.25,1.19-.12,2.37-.37a17.25,17.25,0,0,1,3-.34,13.06,13.06,0,0,0,4.94-1c.66-.3.19-1.41-.5-1.18-2.33.79-4.68.18-7.07.45-1.43.16-2.63.45-3.12,1.84A.5.5,0,0,0,652.19,158.34Z" transform="translate(-533.49 -58)" fill="none"/>
      <path d="M591.57,216.76a.47.47,0,0,1-.53,0c-2.81-2-5-5.79-6.8-8.67l-.16-.28a22.44,22.44,0,0,1-.34,3.16c-.43,2.22-.91,4.47-1.19,6.73H594l-.33-.13A3.85,3.85,0,0,1,591.57,216.76Z" transform="translate(-533.49 -58)" fill="#f7dfa9"/>
      <path d="M585.13,208a16.66,16.66,0,0,0,3.85,5.21c.17.15.34.3.52.44s.32.26.48.39l.3.22.2.14.36.25.15.09c.14.1.29.19.44.28l0,.09a5.88,5.88,0,0,0,.76.55c.8.47,1.84.52,2.55,1.13v0a14.26,14.26,0,0,0,6.1,0,16.87,16.87,0,0,0,2.75-.62c2.84-.71,5.71-1.51,8.61-1.29,3.93-.73,8-1.64,11.47-3.52a14.35,14.35,0,0,0,5.49-4.67,28.57,28.57,0,0,0,1.77-3.91c.25-1.66,1.07-3.21,1.33-4.9a26.91,26.91,0,0,0,.2-8.21,33.9,33.9,0,0,1,.47-12.09c.23-1.08,1.79-.61,1.62.44-.79,4.95-.44,10.32-.33,15.32.06,2.65.18,6.58-1.34,9.13,0,4.27-4.08,8.45-7.52,10.34-4.5,2.46-9.4,3.37-14.42,4a31.79,31.79,0,0,1-3.19.9h57.47c-.92-.23-1.84-.49-2.71-.78-5-.67-9.92-1.58-14.41-4-3.45-1.89-7.55-6.06-7.53-10.34-1.51-2.54-1.4-6.48-1.34-9.13.12-5,.46-10.37-.33-15.31-.16-1,1.39-1.53,1.63-.45a34.17,34.17,0,0,1,.46,12.1,26.54,26.54,0,0,0,.21,8.2c.26,1.7,1.08,3.25,1.32,4.91a27.87,27.87,0,0,0,1.78,3.9,14.35,14.35,0,0,0,5.48,4.68c3.45,1.87,7.55,2.78,11.47,3.51,2.9-.21,5.77.59,8.62,1.3a17.57,17.57,0,0,0,2.74.61,14,14,0,0,0,6.1,0h0c.71-.62,1.75-.66,2.56-1.14a6.55,6.55,0,0,0,.75-.55l0-.08.45-.29a.57.57,0,0,0,.13-.08l.38-.26.18-.12.31-.24c.16-.12.32-.24.47-.37h0l.51-.45a28.89,28.89,0,0,0,5.31-8.08,16.37,16.37,0,0,0,1.82-2.92V182.75a29.3,29.3,0,0,0-4.25-5.88c-2.4-2.63-5-5.07-7-8-.33-.48.43-.9.77-.45,2.55,3.46,5.81,6.4,8.57,9.7.61.72,1.31,1.55,2,2.44V155.93h-.12c-6.3.39-12.24,1.26-18.42-.57a.52.52,0,0,1,.28-1c4.5,1.23,9,.81,13.52.33l-.45-.18a.63.63,0,0,1-.51.08,6.85,6.85,0,0,1-2.77-1.36H643.75a4.79,4.79,0,0,1-1.8,2.52,1,1,0,0,1-1.4-1.07,6.21,6.21,0,0,1,.74-1.45h-9a6.59,6.59,0,0,1,.66,1.33,1,1,0,0,1-1.4,1.08,4.66,4.66,0,0,1-1.75-2.41H590.17a6.78,6.78,0,0,1-2.62,1.24.6.6,0,0,1-.5-.08l-.45.18c4.52.48,9,.9,13.51-.33a.53.53,0,0,1,.28,1c-6.18,1.82-12.12,1-18.42.57-.36,0-.71,0-1.06-.05v26.06a30.91,30.91,0,0,1,2.9-3.85c2.76-3.29,6-6.24,8.58-9.69.33-.46,1.1,0,.77.44-2,2.94-4.66,5.38-7,8a27.41,27.41,0,0,0-5.2,7.83v15.29a16.83,16.83,0,0,0,2.76,5.25A16.23,16.23,0,0,0,585.13,208Zm91.44.81a17.52,17.52,0,0,0,2.06-.19.55.55,0,0,1,.49-.14l.17,0c.37,0,.75-.07,1.14-.08a1.85,1.85,0,0,1,.93-.18.35.35,0,0,1,.3.52,3.73,3.73,0,0,1-2.23,1.41,5.37,5.37,0,0,1-3-.2A.61.61,0,0,1,676.57,208.82Zm-24.73-51.09c.49-1.39,1.69-1.68,3.12-1.84,2.39-.27,4.74.34,7.07-.45.69-.23,1.16.88.5,1.18a13.06,13.06,0,0,1-4.94,1,17.25,17.25,0,0,0-3,.34c-1.18.25-1.25.62-2.37.37A.5.5,0,0,1,651.84,157.73Zm-40.34-2.4c2.33.78,4.68.17,7.07.44,1.43.17,2.64.45,3.12,1.84a.5.5,0,0,1-.35.62c-1.12.24-1.19-.12-2.37-.38a19.38,19.38,0,0,0-3-.34,12.87,12.87,0,0,1-4.94-1C610.34,156.21,610.82,155.1,611.5,155.33Zm-15.79,53.54a.63.63,0,0,1,.65-.54,11.27,11.27,0,0,1,3.37.44c.5.16.74,1,.16,1.24a4.45,4.45,0,0,1-2.23.5,14.16,14.16,0,0,1-2.25-.53A.58.58,0,0,1,595.71,208.87Z" transform="translate(-533.49 -58)" fill="#f7dfa9"/>
      <path d="M689.46,208l-.17.28c-1.81,2.88-4,6.7-6.8,8.68a.44.44,0,0,1-.52,0,3.83,3.83,0,0,1-2.06.85l0,0H691c-.28-2.22-.75-4.43-1.17-6.61A20.08,20.08,0,0,1,689.46,208Z" transform="translate(-533.49 -58)" fill="#f7dfa9"/>
      <path d="M601.11,218.75a42.11,42.11,0,0,0,6.68-1H594A15.73,15.73,0,0,0,601.11,218.75Z" transform="translate(-533.49 -58)"/>
      <path d="M672.42,218.86a15.51,15.51,0,0,0,7.45-1.12H665.26A41.6,41.6,0,0,0,672.42,218.86Z" transform="translate(-533.49 -58)"/>
      <g>
        <path d="M583.74,211a22.44,22.44,0,0,0,.34-3.16l.16.28c1.82,2.88,4,6.69,6.8,8.67a.47.47,0,0,0,.53,0,3.85,3.85,0,0,0,2,.85l.33.13h13.84a31.79,31.79,0,0,0,3.19-.9c5-.66,9.92-1.57,14.42-4,3.44-1.89,7.54-6.07,7.52-10.34,1.52-2.55,1.4-6.48,1.34-9.13-.11-5-.46-10.37.33-15.32.17-1.05-1.39-1.52-1.62-.44a33.9,33.9,0,0,0-.47,12.09,26.91,26.91,0,0,1-.2,8.21c-.26,1.69-1.08,3.24-1.33,4.9a28.57,28.57,0,0,1-1.77,3.91,14.35,14.35,0,0,1-5.49,4.67c-3.45,1.88-7.54,2.79-11.47,3.52-2.9-.22-5.77.58-8.61,1.29a16.87,16.87,0,0,1-2.75.62,14.26,14.26,0,0,1-6.1,0v0c-.71-.61-1.75-.66-2.55-1.13a5.88,5.88,0,0,1-.76-.55l0-.09c-.15-.09-.3-.18-.44-.28l-.15-.09-.36-.25-.2-.14-.3-.22c-.16-.13-.32-.25-.48-.39s-.35-.29-.52-.44a16.66,16.66,0,0,1-3.85-5.21,16.23,16.23,0,0,1-1.46-2.88,16.83,16.83,0,0,1-2.76-5.25V201a39.44,39.44,0,0,0,2.05,4.87c-.61,2.47-1.42,4.87-2.05,7.33v4.56h1.64C582.83,215.48,583.31,213.23,583.74,211Z" transform="translate(-533.49 -58)"/>
        <path d="M688.4,208.13a16.73,16.73,0,0,1-3.85,5.2l-.51.45h0c-.15.13-.31.25-.47.37l-.31.24-.18.12-.38.26a.57.57,0,0,1-.13.08l-.45.29,0,.08a6.55,6.55,0,0,1-.75.55c-.81.48-1.85.52-2.56,1.14h0a14,14,0,0,1-6.1,0,17.57,17.57,0,0,1-2.74-.61c-2.85-.71-5.72-1.51-8.62-1.3-3.92-.73-8-1.64-11.47-3.51a14.35,14.35,0,0,1-5.48-4.68,27.87,27.87,0,0,1-1.78-3.9c-.24-1.66-1.06-3.21-1.32-4.91a26.54,26.54,0,0,1-.21-8.2,34.17,34.17,0,0,0-.46-12.1c-.24-1.08-1.79-.6-1.63.45.79,4.94.45,10.32.33,15.31-.06,2.65-.17,6.59,1.34,9.13,0,4.28,4.08,8.45,7.53,10.34,4.49,2.46,9.4,3.37,14.41,4,.87.29,1.79.55,2.71.78h14.61l0,0a3.83,3.83,0,0,0,2.06-.85.44.44,0,0,0,.52,0c2.82-2,5-5.8,6.8-8.68l.17-.28a20.08,20.08,0,0,0,.34,3.17c.42,2.18.89,4.39,1.17,6.61h.71V210c-.38-1.33-.77-2.65-1.11-4q.6-1.18,1.11-2.43v-1.21a16.37,16.37,0,0,1-1.82,2.92A16.58,16.58,0,0,1,688.4,208.13Z" transform="translate(-533.49 -58)"/>
      </g>
      <path d="M595.41,210a14.16,14.16,0,0,0,2.25.53,4.45,4.45,0,0,0,2.23-.5c.58-.25.34-1.08-.16-1.24a11.27,11.27,0,0,0-3.37-.44.63.63,0,0,0-.65.54A.58.58,0,0,0,595.41,210Z" transform="translate(-533.49 -58)"/>
      <path d="M676.41,210a5.37,5.37,0,0,0,3,.2,3.73,3.73,0,0,0,2.23-1.41.35.35,0,0,0-.3-.52,1.85,1.85,0,0,0-.93.18c-.39,0-.77,0-1.14.08l-.17,0a.55.55,0,0,0-.49.14,17.52,17.52,0,0,1-2.06.19A.61.61,0,0,0,676.41,210Z" transform="translate(-533.49 -58)"/>
    </g>
  </g>
  <g id="neck">
    <g>
      <path d="M680.52,150.39c-2.81-3.36-6.88-3.57-10.81-4.66a24.12,24.12,0,0,1-8.48-4.69,22.24,22.24,0,0,1-4.53-4.64c-1,5.56-2,11.11-2.74,16.71,0,.17-.26.1-.28,0-.57-5.25.31-10.24,1.11-15.41a134.7,134.7,0,0,0,1.53-16.53,32.36,32.36,0,0,1-13.42,10.22.7.7,0,0,1-.53.37,22.1,22.1,0,0,1-2.29.31.67.67,0,0,1-.61.23c-.47,0-.93-.08-1.4-.11-1.34,0-2.68.09-4,.22a.69.69,0,0,1-.76-.47,19.48,19.48,0,0,1-2.15-.29.73.73,0,0,1-.52-.38A32.3,32.3,0,0,1,617.21,121a134.73,134.73,0,0,0,1.54,16.52c.79,5.18,1.68,10.16,1.1,15.42,0,.14-.25.2-.28,0-.75-5.59-1.77-11.15-2.73-16.71a22.84,22.84,0,0,1-4.54,4.65,24,24,0,0,1-8.47,4.68c-3.94,1.1-8,1.3-10.82,4.66a17.83,17.83,0,0,1-2.84,3h39.66l-.24-.59c-.48-1.18-.86-2.4-1.24-3.62s1.46-1.68,1.87-.51a32.67,32.67,0,0,0,1.28,3.33,12.33,12.33,0,0,0,.82,1.39h9c.26-.42.54-.84.75-1.27.51-1.08.87-2.22,1.27-3.34s2.24-.69,1.87.52-.76,2.43-1.24,3.62c-.06.15-.13.31-.19.47h39.46A18.76,18.76,0,0,1,680.52,150.39Zm-54.67-9.74a.53.53,0,0,1-.82.11c-1.14-1.08-1.18-3.17-1.62-4.65a43,43,0,0,1-1.27-5.15c-.12-.73,1-1.06,1.13-.31a51.62,51.62,0,0,0,1.86,5.68C625.64,137.74,626.48,139.2,625.85,140.65Zm25.54-9.57a41.62,41.62,0,0,1-1.27,5.15c-.43,1.47-.48,3.56-1.61,4.64a.53.53,0,0,1-.83-.11c-.63-1.45.21-2.9.72-4.32a53.89,53.89,0,0,0,1.87-5.68C650.44,130,651.51,130.35,651.39,131.08Z" transform="translate(-533.49 -58)" fill="#f7dfa9"/>
      <path d="M623.27,130.65c-.18-.75-1.25-.42-1.13.31a43,43,0,0,0,1.27,5.15c.44,1.48.48,3.57,1.62,4.65a.53.53,0,0,0,.82-.11c.63-1.45-.21-2.91-.72-4.32A51.62,51.62,0,0,1,623.27,130.65Z" transform="translate(-533.49 -58)"/>
      <path d="M630.22,148.51c-.41-1.17-2.24-.69-1.87.51s.76,2.44,1.24,3.62l.24.59h2.49a12.33,12.33,0,0,1-.82-1.39A32.67,32.67,0,0,1,630.22,148.51Z" transform="translate(-533.49 -58)"/>
      <path d="M650.27,130.76a53.89,53.89,0,0,1-1.87,5.68c-.51,1.42-1.35,2.87-.72,4.32a.53.53,0,0,0,.83.11c1.13-1.08,1.18-3.17,1.61-4.64a41.62,41.62,0,0,0,1.27-5.15C651.51,130.35,650.44,130,650.27,130.76Z" transform="translate(-533.49 -58)"/>
      <path d="M645.18,149.14c.37-1.21-1.46-1.69-1.87-.52s-.76,2.26-1.27,3.34c-.21.43-.49.85-.75,1.27h2.46c.06-.16.13-.32.19-.47C644.42,151.57,644.8,150.36,645.18,149.14Z" transform="translate(-533.49 -58)"/>
      <path d="M679.62,147c-2.15-1.68-4.92-2.27-7.5-2.9a25.76,25.76,0,0,1-9.07-3.93,24.72,24.72,0,0,1-4-3.52c-.71-.82-1.29-1.72-2-2.53.7-4.31,1.17-8.72.31-13h-1.06a134.7,134.7,0,0,1-1.53,16.53c-.8,5.17-1.68,10.16-1.11,15.41,0,.14.25.21.28,0,.75-5.6,1.77-11.15,2.74-16.71a22.24,22.24,0,0,0,4.53,4.64,24.12,24.12,0,0,0,8.48,4.69c3.93,1.09,8,1.3,10.81,4.66a18.76,18.76,0,0,0,2.69,2.84H686C683.19,152.17,681.92,148.83,679.62,147Z" transform="translate(-533.49 -58)"/>
      <path d="M593,150.27c2.81-3.36,6.88-3.56,10.82-4.66a24,24,0,0,0,8.47-4.68,22.84,22.84,0,0,0,4.54-4.65c1,5.56,2,11.12,2.73,16.71,0,.17.26.11.28,0,.58-5.26-.31-10.24-1.1-15.42A134.73,134.73,0,0,1,617.21,121a32.3,32.3,0,0,0,13.43,10.21.73.73,0,0,0,.52.38,19.48,19.48,0,0,0,2.15.29.69.69,0,0,0,.76.47c1.32-.13,2.66-.17,4-.22.47,0,.93.06,1.4.11a.67.67,0,0,0,.61-.23,22.1,22.1,0,0,0,2.29-.31l-11.43-1.57c-7.39-.17-14.58-10.38-14.58-10.38,0,.15.06.31.08.46a.42.42,0,0,0-.19.27c-1,4.47-.52,9.05.21,13.54-.7.8-1.28,1.71-2,2.52a24.36,24.36,0,0,1-4,3.53,26,26,0,0,1-9.06,3.93c-2.59.63-5.36,1.22-7.5,2.9-2.39,1.86-3.67,5.39-6.7,6.31h2.95A17.83,17.83,0,0,0,593,150.27Z" transform="translate(-533.49 -58)"/>
    </g>
    <path d="M642.37,131.72a.7.7,0,0,0,.53-.37,32.36,32.36,0,0,0,13.42-10.22C650.12,126.73,642.59,130.26,642.37,131.72Z" transform="translate(-533.49 -58)"/>
  </g>
  <g id="head">
    <path d="M631.8,130.34c2.21.39,4.51,0,6.73.31a19.56,19.56,0,0,0,3.59-.2.85.85,0,0,1,.66.14,29.87,29.87,0,0,0,10.28-7.27c2.92-3,6.1-7.49,5.39-11.94a.69.69,0,0,1,.26-.67,6.73,6.73,0,0,1,.3-2c.13-.42.84-.36.8.11-.12,1.44-.06,2.94,1.63,1.78a9.29,9.29,0,0,0,2.37-2.55,18.74,18.74,0,0,0,3.1-10,.45.45,0,0,1-.14-.19,13.42,13.42,0,0,0-1.26-3.19A3.92,3.92,0,0,0,663.2,93c-2.84-.67-2.47,3.41-2.07,5a.24.24,0,0,1-.46.13c-.72-2.18-1-6,2.17-6.08h.35a67.88,67.88,0,0,1-.57-8.19c-.1-3.3-1-6.81-.8-10a.14.14,0,0,1,0-.06c-3.41-8-12.9-12.89-21.73-13.64a.91.91,0,0,1-.37,0l-.81-.1a25.63,25.63,0,0,0-4.75.21.83.83,0,0,1-.73-.22c-8.73.86-18,5.68-21.37,13.62a.42.42,0,0,1,0,.06c.2,3.23-.7,6.75-.8,10a69.81,69.81,0,0,1-.57,8.18c.11,0,.23,0,.35,0,3.21.13,2.89,3.9,2.16,6.07a.23.23,0,0,1-.45-.12c.39-1.56.77-5.63-2.07-5a3.87,3.87,0,0,0-2.31,1.65,13.25,13.25,0,0,0-1.26,3.19.43.43,0,0,1-.15.18,18.85,18.85,0,0,0,3.11,10,9.56,9.56,0,0,0,2.36,2.55c1.69,1.16,1.76-.34,1.64-1.78,0-.48.67-.54.8-.11a6.61,6.61,0,0,1,.3,2,.72.72,0,0,1,.26.67c-.71,4.46,2.47,8.9,5.39,11.94a29.71,29.71,0,0,0,10.28,7.28A.81.81,0,0,1,631.8,130.34Z" transform="translate(-533.49 -58)" fill="#f7dfa9"/>
    <path d="M631.14,130.48a29.71,29.71,0,0,1-10.28-7.28c-2.92-3-6.1-7.48-5.39-11.94a.72.72,0,0,0-.26-.67,6.61,6.61,0,0,0-.3-2c-.13-.43-.84-.37-.8.11.12,1.44,0,2.94-1.64,1.78a9.56,9.56,0,0,1-2.36-2.55,18.85,18.85,0,0,1-3.11-10,.43.43,0,0,0,.15-.18,13.25,13.25,0,0,1,1.26-3.19,3.87,3.87,0,0,1,2.31-1.65c2.84-.67,2.46,3.4,2.07,5a.23.23,0,0,0,.45.12c.73-2.17,1-5.94-2.16-6.07-.12,0-.24,0-.35,0a69.81,69.81,0,0,0,.57-8.18c.1-3.3,1-6.82.8-10a.42.42,0,0,0,0-.06c3.36-7.94,12.64-12.76,21.37-13.62a.83.83,0,0,0,.73.22,25.63,25.63,0,0,1,4.75-.21l.81.1a.91.91,0,0,0,.37,0c8.83.75,18.32,5.6,21.73,13.64a.14.14,0,0,0,0,.06c-.2,3.24.7,6.75.8,10a67.88,67.88,0,0,0,.57,8.19h-.35c-3.21.13-2.89,3.9-2.17,6.08a.24.24,0,0,0,.46-.13c-.4-1.55-.77-5.63,2.07-5a3.92,3.92,0,0,1,2.31,1.65,13.42,13.42,0,0,1,1.26,3.19.45.45,0,0,0,.14.19,18.74,18.74,0,0,1-3.1,10,9.29,9.29,0,0,1-2.37,2.55c-1.69,1.16-1.75-.34-1.63-1.78,0-.47-.67-.53-.8-.11a6.73,6.73,0,0,0-.3,2,.69.69,0,0,0-.26.67c.71,4.45-2.47,8.9-5.39,11.94a29.87,29.87,0,0,1-10.28,7.27.85.85,0,0,0-.66-.14,19.56,19.56,0,0,1-3.59.2c-2.22-.29-4.52.08-6.73-.31a.81.81,0,0,0-.66.14l11.42,1.57c.22-1.46,7.75-5,14-10.59h1.05c0-.17-.06-.34-.1-.51a.47.47,0,0,0-.18-.28,3.35,3.35,0,0,1,.07-.44,14.1,14.1,0,0,0,2.5-8,4,4,0,0,0,2.8-1.33,17.83,17.83,0,0,0,5.41-13.43.58.58,0,0,0-.45-.55A5.82,5.82,0,0,0,664,92.17a.28.28,0,0,0,0-.13c-.35-3.46.08-6.82.14-10.28.06-2.55.32-5.83-1.12-8.08-3.07-9.84-15-15.86-25.19-15.55-10.57-1.1-23.67,5-26.91,15.43-1.44,2.25-1.18,5.53-1.13,8.09.07,3.46.5,6.81.15,10.27a.28.28,0,0,0,0,.13,5.82,5.82,0,0,0-3.64,4.72.57.57,0,0,0-.45.54,17.88,17.88,0,0,0,5.4,13.44,4.05,4.05,0,0,0,2.81,1.32,14.06,14.06,0,0,0,2.49,8S623.74,130.31,631.14,130.48Z" transform="translate(-533.49 -58)"/>
  </g>
</svg>
